if (_typeface_js && _typeface_js.loadFace) _typeface_js.loadFace({"glyphs":{"S":{"x_min":183,"x_max":1381,"ha":982,"o":"m 1381 886 q 1315 792 1381 853 q 1155 674 1250 730 q 1119 534 1143 635 q 1049 308 1081 374 q 944 172 1017 241 q 470 -28 733 -28 q 337 -2 395 -28 q 305 -111 305 -65 q 344 -218 305 -170 q 348 -228 348 -223 q 341 -233 348 -233 q 307 -191 325 -233 q 290 -112 290 -149 q 324 3 290 -59 q 183 255 183 77 q 250 483 183 370 q 441 687 318 596 q 751 803 598 803 q 883 756 834 803 q 933 629 933 709 q 920 540 933 586 q 1097 653 1020 606 q 1220 836 1146 759 q 1349 913 1294 913 q 1381 886 1381 913 m 1368 884 q 1349 901 1368 901 q 1247 838 1303 901 q 1161 691 1191 775 q 1309 801 1250 746 q 1368 884 1368 856 m 897 510 l 852 479 q 483 185 596 303 q 544 171 512 171 q 743 270 639 171 q 897 510 847 370 m 1089 634 q 915 520 1009 584 q 758 268 870 377 q 543 160 646 160 q 474 176 511 160 q 344 9 397 96 q 470 -16 399 -16 q 717 56 598 -16 q 922 256 836 128 q 985 367 962 316 q 1060 560 1008 418 q 1089 634 1072 596 m 921 632 q 875 746 921 703 q 756 790 830 790 q 403 600 574 790 q 233 206 233 410 q 331 16 233 72 q 463 183 377 92 q 419 275 419 221 q 444 345 419 316 q 507 374 470 374 q 552 331 552 374 q 535 294 552 310 q 495 278 518 278 q 462 310 462 278 q 469 331 462 320 q 472 342 472 340 q 467 346 472 346 q 444 321 456 346 q 432 273 432 297 q 473 193 432 228 q 904 528 609 337 q 921 632 921 588 "},"/":{"x_min":236,"x_max":986,"ha":735,"o":"m 986 1009 l 257 -140 l 236 -140 l 964 1009 l 986 1009 "},"K":{"x_min":121,"x_max":1910,"ha":1224,"o":"m 1910 751 q 1754 556 1910 631 q 1698 536 1710 536 q 1692 540 1692 536 q 1698 547 1692 545 q 1834 628 1780 570 q 1889 749 1889 686 q 1851 838 1889 804 q 1750 872 1812 872 q 1595 826 1670 872 q 1414 665 1521 780 q 1063 449 1229 464 q 1126 323 1126 413 q 1091 154 1126 282 q 1076 69 1076 95 q 1106 -10 1076 20 q 1184 -41 1136 -41 q 1260 -15 1226 -41 q 1271 -7 1268 -7 q 1275 -11 1275 -7 q 1241 -39 1275 -24 q 1180 -54 1208 -54 q 1066 2 1114 -54 q 1018 136 1018 59 q 1057 298 1018 186 q 1077 385 1077 354 q 1050 449 1077 423 q 1009 445 1025 445 q 959 458 959 445 q 986 467 959 467 q 1047 455 1014 467 q 1173 507 1116 467 q 1335 652 1228 545 q 1556 831 1459 777 q 1753 886 1654 886 q 1865 847 1821 886 q 1910 751 1910 809 m 1018 712 q 977 655 1018 697 q 862 591 916 591 q 797 618 823 591 q 772 685 772 645 q 801 778 772 721 q 836 874 836 847 q 802 929 836 908 q 716 951 769 951 q 433 829 566 951 q 300 569 300 707 q 343 453 300 498 q 455 408 386 408 q 580 442 517 408 q 681 532 643 477 q 685 535 684 535 q 691 529 691 535 q 647 477 691 515 q 454 397 558 397 q 334 444 380 397 q 288 567 288 491 q 424 838 288 714 q 722 962 560 962 q 864 837 864 962 q 819 705 864 793 q 804 655 804 674 q 859 604 804 604 q 945 641 900 604 q 1007 713 982 671 q 1012 717 1009 717 q 1018 712 1018 717 m 1253 810 q 1239 801 1253 806 q 1086 679 1151 764 q 893 353 1021 594 q 777 179 833 241 q 626 61 720 118 q 333 -33 470 -33 q 180 6 239 -33 q 121 108 121 45 q 141 167 121 143 q 192 192 161 192 q 236 147 236 192 q 221 109 236 125 q 186 94 207 94 q 153 130 153 94 q 147 144 153 144 q 137 106 137 144 q 189 15 137 50 q 328 -19 242 -19 q 599 89 476 -19 q 702 198 662 144 q 854 429 743 251 q 1124 750 997 658 q 1193 792 1148 769 q 1247 815 1238 815 q 1253 810 1253 815 "},"7":{"x_min":264,"x_max":888.671875,"ha":664,"o":"m 888 762 q 855 676 888 731 q 801 603 828 632 q 662 461 771 567 q 379 -3 389 194 q 316 3 347 3 q 264 -3 288 3 q 385 247 287 128 q 703 532 483 365 q 859 700 822 622 q 712 629 810 629 q 579 659 661 629 q 472 690 496 690 q 432 678 451 690 l 428 670 q 351 565 375 565 q 343 573 343 565 q 422 678 343 607 q 437 731 437 709 q 433 754 437 740 l 433 756 q 441 765 433 765 q 450 751 450 765 q 434 688 450 726 q 544 733 488 733 q 680 698 577 733 q 776 679 738 679 q 870 746 870 679 q 869 758 870 751 l 869 762 q 878 774 869 774 q 888 762 888 774 "},"d":{"x_min":71,"x_max":742,"ha":478,"o":"m 742 686 q 421 169 487 281 q 354 24 354 54 q 381 -6 354 -6 q 591 208 443 -6 q 598 215 595 215 q 602 211 602 215 q 595 200 601 209 l 566 160 q 377 -16 438 -16 q 326 7 346 -16 q 307 67 307 30 q 331 152 307 104 q 155 -16 213 -16 q 95 14 119 -16 q 71 92 71 45 q 210 295 71 204 q 383 368 320 368 q 426 327 426 368 q 414 284 426 308 l 656 690 q 700 683 678 683 q 742 686 705 683 m 416 322 q 382 358 416 358 q 221 236 321 358 q 121 39 121 114 q 158 -6 121 -6 q 345 182 212 -6 q 416 322 416 284 "},",":{"x_min":61,"x_max":210,"ha":310,"o":"m 210 81 q 160 -18 210 35 q 109 -59 140 -39 q 65 -80 78 -80 q 61 -76 61 -80 q 66 -69 61 -71 q 117 -40 94 -59 q 140 -8 140 -22 q 133 -4 140 -4 q 103 24 103 -4 q 130 81 103 51 q 182 111 158 111 q 210 81 210 111 "},"Y":{"x_min":204,"x_max":1678,"ha":1293,"o":"m 1678 754 q 1672 749 1677 752 q 1456 525 1555 666 q 1241 135 1360 387 q 965 -212 1139 -82 q 606 -342 791 -342 q 456 -299 515 -342 q 397 -190 397 -257 q 421 -122 397 -150 q 480 -94 446 -94 q 525 -136 525 -94 q 509 -175 525 -158 q 473 -192 494 -192 q 437 -158 437 -192 q 440 -143 437 -149 q 441 -135 441 -139 q 438 -130 441 -130 q 420 -150 429 -130 q 411 -190 411 -169 q 465 -290 411 -250 q 602 -330 519 -330 q 817 -268 715 -330 q 983 -124 919 -207 q 1176 190 1046 -44 q 1282 369 1221 271 q 1059 120 1133 189 q 836 -7 922 -7 q 750 32 783 -7 q 718 133 718 71 q 754 263 718 197 q 907 479 791 330 q 1058 790 1058 670 q 866 949 1058 949 q 438 754 652 949 q 291 564 350 674 q 232 369 232 453 q 279 240 232 288 q 405 192 326 192 q 674 324 546 192 q 829 620 829 484 q 801 697 829 668 q 730 727 774 727 q 522 604 631 727 q 413 371 413 482 q 481 300 413 300 l 484 300 q 491 296 491 300 q 474 291 491 291 q 412 322 436 291 q 389 403 389 353 q 500 629 389 519 q 728 739 611 739 q 810 706 780 739 q 841 620 841 674 q 716 351 841 499 q 406 179 570 179 q 259 240 315 179 q 204 404 204 302 q 416 776 204 606 q 643 910 522 860 q 866 960 765 960 q 1035 899 973 960 q 1097 734 1097 839 q 1059 572 1097 651 q 909 348 1021 493 q 787 178 813 223 q 761 91 761 134 q 841 7 761 7 q 1022 99 917 7 q 1298 409 1127 192 q 1655 754 1475 634 l 1664 759 q 1671 762 1669 762 q 1678 754 1678 762 "},"E":{"x_min":215,"x_max":1441,"ha":1168,"o":"m 1441 759 q 1357 714 1441 714 q 1044 775 1291 714 q 930 609 930 709 q 963 542 930 561 q 1035 547 1011 547 q 1106 529 1106 547 q 1068 519 1106 519 q 965 532 1021 519 q 790 474 889 521 q 536 159 536 352 q 675 -3 536 31 q 650 92 650 38 q 786 338 650 225 q 1085 451 922 451 q 1203 414 1159 451 q 1248 316 1248 377 q 1102 78 1248 184 q 775 -28 957 -28 q 706 -23 738 -28 q 900 -111 772 -111 q 1029 -87 979 -111 l 1037 -85 q 1042 -91 1042 -87 q 991 -111 1042 -100 q 900 -122 941 -122 q 683 -19 758 -122 q 521 58 580 3 q 463 187 463 113 q 544 370 463 285 q 761 500 625 456 q 949 540 843 527 q 874 641 874 571 q 983 790 874 730 q 723 828 826 828 q 381 727 523 828 q 240 485 240 627 q 277 376 240 421 q 366 331 314 331 q 402 342 402 331 q 389 346 402 348 q 353 379 353 346 q 369 412 353 398 q 408 426 385 426 q 451 383 451 426 q 426 336 451 355 q 366 317 402 317 q 259 373 303 317 q 215 510 215 430 q 319 730 215 630 q 668 850 443 850 q 1000 799 793 850 q 1218 844 1094 844 q 1375 819 1310 844 q 1441 759 1441 794 m 1427 760 q 1371 807 1427 787 q 1242 828 1315 828 q 1060 784 1142 828 q 1363 726 1240 726 q 1427 760 1427 726 m 1236 321 q 1197 402 1236 370 q 1099 434 1158 434 q 814 313 953 434 q 675 66 675 192 q 697 -8 675 29 q 770 -16 736 -16 q 1083 94 930 -16 q 1236 321 1236 205 "},"y":{"x_min":-233,"x_max":553.5625,"ha":428,"o":"m 553 212 q 478 119 553 202 q 263 -44 396 28 l 229 -104 q 24 -367 131 -280 q -167 -456 -86 -456 q -214 -438 -195 -456 q -233 -394 -233 -420 q 81 -112 -233 -258 q 159 -76 107 -99 l 169 -70 l 288 141 q 186 14 218 44 q 121 -16 154 -16 q 72 7 93 -16 q 52 63 52 31 q 99 184 52 102 l 204 361 q 240 358 219 358 q 289 363 257 358 l 155 145 q 99 24 99 53 q 126 -6 99 -6 q 352 254 200 -6 l 415 361 q 452 358 430 358 q 498 363 471 358 q 270 -29 413 229 q 409 63 352 13 q 537 204 466 113 q 549 216 546 216 q 553 212 553 216 m 162 -82 q 85 -120 151 -88 q -223 -396 -223 -274 q -165 -447 -223 -447 q -22 -369 -94 -447 q 153 -95 48 -291 q 162 -82 153 -95 "},"\"":{"x_min":574,"x_max":831,"ha":664,"o":"m 831 862 q 820 819 831 841 q 754 686 812 799 q 699 566 714 609 l 689 566 q 739 779 698 599 q 804 894 762 894 q 831 862 831 894 m 717 860 q 686 775 717 833 q 586 566 608 627 l 574 566 q 624 779 595 638 q 690 894 647 894 q 717 860 717 894 "},"‹":{"x_min":140,"x_max":423.859375,"ha":346,"o":"m 423 297 q 341 228 410 279 q 212 152 264 173 q 311 71 244 126 q 308 68 310 69 q 229 110 304 68 q 140 161 154 151 q 416 296 252 180 q 422 298 419 298 l 423 297 "},"˙":{"x_min":546,"x_max":642,"ha":695,"o":"m 642 499 q 622 453 642 473 q 579 433 603 433 q 546 465 546 433 q 566 508 546 488 q 611 529 587 529 q 642 499 642 529 "},"„":{"x_min":50.421875,"x_max":331,"ha":418,"o":"m 331 81 q 257 -41 331 17 q 186 -79 210 -79 q 182 -75 182 -79 q 187 -69 182 -71 q 260 -8 260 -42 q 258 -4 260 -4 l 251 -4 q 225 23 225 -4 q 252 81 225 51 q 304 111 279 111 q 331 81 331 111 m 199 81 q 148 -18 199 35 q 98 -59 129 -38 q 54 -79 66 -79 q 50 -75 50 -79 q 55 -69 50 -71 q 106 -40 84 -59 q 129 -8 129 -21 q 122 -3 129 -3 q 92 25 92 -3 q 119 81 92 51 q 171 111 146 111 q 199 81 199 111 "},"g":{"x_min":-193,"x_max":590.5,"ha":465,"o":"m 590 212 q 517 119 590 201 q 304 -42 434 28 l 270 -104 q 63 -367 178 -274 q -125 -456 -45 -456 q -174 -438 -155 -456 q -193 -394 -193 -420 q 120 -112 -193 -255 q 208 -70 188 -81 l 323 141 q 217 12 248 41 q 153 -16 186 -16 q 93 15 118 -16 q 69 91 69 46 q 222 304 69 208 q 383 368 324 368 q 424 323 424 368 q 417 294 424 311 l 456 363 q 487 358 474 358 q 539 363 505 358 q 479 261 534 356 l 311 -29 q 453 67 400 21 q 573 203 506 114 q 587 216 583 216 q 590 212 590 215 m 416 323 q 383 358 416 358 q 221 236 322 358 q 121 39 121 114 q 160 -6 121 -6 q 295 114 200 -6 q 416 323 416 267 m 201 -82 q 125 -120 188 -89 q -184 -396 -184 -274 q -168 -431 -184 -417 q -128 -446 -152 -446 q 16 -369 -53 -446 q 193 -95 87 -293 q 201 -82 193 -95 "},"–":{"x_min":186.109375,"x_max":616.203125,"ha":618,"o":"m 616 189 q 608 183 614 185 l 581 172 q 469 146 519 146 q 359 162 442 146 q 290 171 318 171 q 194 147 230 171 q 189 144 192 144 q 186 147 186 144 q 257 183 186 160 q 368 207 329 207 q 457 189 397 207 q 534 174 507 174 q 605 189 568 174 q 613 192 612 192 q 616 189 616 191 "},"ƒ":{"x_min":-170.921875,"x_max":944.609375,"ha":664,"o":"m 944 641 q 938 630 944 630 q 929 636 931 630 q 863 685 905 682 q 781 669 815 687 q 714 611 753 654 q 554 349 663 555 l 701 349 l 690 337 l 548 337 q 503 250 528 298 q 155 -239 325 -99 q -82 -340 29 -344 q -170 -283 -162 -336 q -165 -272 -170 -272 q -155 -278 -157 -272 q -76 -324 -132 -321 q 108 -253 17 -328 q 233 -94 162 -208 q 380 168 278 -20 q 473 337 429 260 l 349 337 l 360 349 l 481 349 l 492 368 q 669 600 582 520 q 869 697 779 700 q 944 641 936 694 "},"e":{"x_min":74,"x_max":468.203125,"ha":342,"o":"m 468 212 q 456 194 468 210 l 426 158 q 185 -16 286 -16 q 106 18 138 -16 q 74 104 74 52 q 244 319 74 226 q 390 368 333 368 q 431 353 414 368 q 449 317 449 338 q 385 234 449 268 q 172 170 321 200 q 126 54 126 100 q 189 -4 126 -4 q 451 205 296 -4 q 465 216 460 216 q 468 212 468 215 m 411 337 q 387 359 411 359 q 292 309 351 359 q 177 180 233 259 q 343 250 275 205 q 411 337 411 296 "},"J":{"x_min":-92,"x_max":1304,"ha":782,"o":"m 1304 939 q 1249 904 1304 929 q 1126 860 1193 879 q 929 649 1009 764 q 751 325 848 535 l 768 325 q 961 409 882 325 q 1015 521 999 451 q 1023 531 1018 531 q 1029 525 1029 531 q 946 381 1029 449 q 769 314 863 314 q 745 315 755 314 q 705 232 741 306 q 562 -15 620 59 q 412 -148 504 -89 q 110 -241 264 -241 q -35 -200 21 -241 q -92 -98 -92 -160 q -72 -41 -92 -64 q -25 -17 -53 -17 q 19 -62 19 -17 q -29 -117 19 -117 q -67 -73 -65 -117 q -68 -68 -67 -70 q -80 -100 -80 -68 q -26 -190 -80 -154 q 109 -227 27 -227 q 409 -85 283 -227 q 504 47 458 -29 q 652 309 578 178 l 663 328 q 554 403 595 349 q 514 524 514 456 q 615 728 514 646 q 735 795 674 776 q 954 834 796 814 q 1119 866 1023 842 q 1294 947 1245 947 q 1304 939 1304 947 m 1106 855 q 981 826 1060 844 q 787 770 854 797 q 666 695 721 742 q 550 486 550 596 q 669 339 550 379 q 1106 855 872 707 "},"|":{"x_min":556,"x_max":582,"ha":695,"o":"m 582 -232 l 556 -232 l 556 926 l 582 926 l 582 -232 "},"˘":{"x_min":457.359375,"x_max":725.203125,"ha":695,"o":"m 725 533 q 690 486 725 520 q 571 436 639 436 q 489 464 521 436 q 457 538 457 493 q 465 564 457 564 q 470 553 468 564 q 508 497 477 519 q 582 476 539 476 q 708 525 657 476 q 722 537 718 537 q 725 533 725 536 "},"^":{"x_min":276,"x_max":850.03125,"ha":695,"o":"m 848 404 q 815 434 835 404 q 730 598 771 498 q 485 472 645 542 q 284 402 326 402 q 276 408 276 402 q 294 419 279 413 q 589 575 442 482 q 794 740 739 671 q 793 698 793 719 q 845 420 793 551 q 848 404 852 404 "},"q":{"x_min":7,"x_max":536.5,"ha":402,"o":"m 536 364 q 318 3 472 255 q 127 -314 236 -133 q 93 -370 116 -332 q 50 -364 70 -364 q 7 -370 27 -364 l 325 140 q 298 105 322 136 q 152 -16 208 -16 q 93 15 117 -16 q 69 92 69 47 q 208 294 69 201 q 383 368 318 368 q 425 327 425 368 q 415 289 425 314 l 456 363 q 487 359 468 359 q 536 364 502 359 m 415 324 q 384 358 415 358 q 222 235 323 358 q 121 38 121 113 q 160 -6 121 -6 q 321 146 207 -6 q 415 324 415 274 "},"b":{"x_min":64,"x_max":491,"ha":366,"o":"m 491 685 l 186 203 q 292 334 257 301 q 359 368 327 368 q 421 337 397 368 q 446 259 446 306 q 315 57 446 157 q 143 -16 218 -16 q 86 10 108 -16 q 64 80 64 37 q 129 235 64 131 l 410 686 q 449 680 428 680 q 491 685 465 680 m 396 312 q 358 358 396 358 q 189 194 308 358 q 100 30 100 72 q 135 -6 100 -6 q 296 115 196 -6 q 396 312 396 237 "},"D":{"x_min":88,"x_max":1742,"ha":1177,"o":"m 1742 697 q 1733 624 1742 663 q 1718 586 1725 586 q 1714 590 1714 586 q 1715 599 1714 595 q 1731 696 1731 640 q 1679 834 1731 782 q 1541 886 1627 886 q 1223 729 1377 886 q 1282 500 1282 620 q 1111 122 1282 277 q 694 -32 941 -32 q 486 -10 618 -32 q 267 -32 372 -32 q 88 4 88 -32 q 131 36 88 22 q 233 50 175 50 q 514 3 304 50 q 737 120 656 40 q 981 460 816 198 q 1198 730 1080 618 q 878 898 1099 898 q 457 717 648 898 q 303 516 361 626 q 246 314 246 406 q 292 197 246 241 q 415 153 339 153 q 684 292 545 153 q 824 561 824 432 q 796 640 824 610 q 725 670 769 670 q 675 653 675 670 q 682 648 675 648 q 689 650 686 648 l 698 650 q 731 619 731 650 q 714 580 731 597 q 675 563 698 563 q 633 608 633 563 q 660 661 633 639 q 726 683 688 683 q 807 650 776 683 q 838 564 838 617 q 695 284 838 427 q 415 141 552 141 q 260 203 321 141 q 199 364 199 266 q 407 742 199 575 q 878 910 615 910 q 1214 745 1101 910 q 1550 898 1379 898 q 1689 842 1636 898 q 1742 697 1742 787 m 1245 550 q 1208 713 1245 637 q 1044 450 1117 608 q 846 148 949 241 q 536 -2 741 54 q 720 -21 623 -21 q 1140 230 979 -21 q 1245 550 1245 393 m 463 -6 q 183 20 275 20 q 102 4 102 20 q 279 -20 102 -20 q 463 -6 381 -20 "},"Ω":{"x_min":165.78125,"x_max":1037,"ha":943,"o":"m 1037 536 q 888 194 1037 361 q 767 90 836 135 q 682 42 761 86 q 856 44 779 36 q 975 124 975 54 q 982 140 975 140 q 990 127 990 140 q 961 63 990 98 q 825 -2 905 -2 q 803 -1 814 -2 q 595 0 674 7 q 822 198 716 52 q 973 610 973 404 q 865 722 973 722 q 595 573 741 722 q 450 372 504 482 q 393 154 393 258 q 395 128 393 141 q 417 57 397 96 q 469 0 440 14 q 307 -1 402 5 q 287 -2 297 -2 q 171 63 197 -2 q 172 125 159 93 q 187 138 178 140 q 189 125 194 135 q 178 89 178 104 q 276 38 178 49 q 417 37 322 33 q 368 95 393 54 q 335 205 337 148 q 547 591 325 404 q 864 732 713 732 q 987 677 937 732 q 1037 536 1037 623 "},"z":{"x_min":-250,"x_max":533,"ha":387,"o":"m 533 361 q 470 303 533 339 q 236 119 401 244 q 179 76 214 103 l 198 78 q 256 55 231 80 q 288 -6 281 31 q 396 84 327 15 q 498 204 464 153 q 511 217 506 217 q 514 214 513 217 q 440 118 514 200 q 290 -18 364 33 l 290 -35 q 236 -197 290 -111 q 104 -335 182 -282 q -170 -449 -68 -449 q -250 -384 -250 -449 q -141 -227 -250 -309 q 149 -82 -85 -185 q 235 -38 195 -61 q 247 18 247 -7 q 193 69 247 69 q 169 67 177 69 l 160 59 l 134 35 q 52 -24 70 -24 q 36 -8 36 -24 q 161 73 36 35 q 450 297 350 217 l 436 287 q 366 261 398 261 q 310 290 344 261 q 257 316 278 316 q 130 211 215 316 q 119 203 122 203 q 116 207 116 203 q 179 285 116 219 q 307 366 255 366 q 397 321 328 366 q 440 306 421 306 q 461 311 450 306 l 469 322 l 491 350 q 522 370 507 370 q 533 361 533 370 m 231 -50 q 38 -141 214 -59 q -166 -267 -92 -202 q -241 -387 -241 -332 q -171 -440 -241 -440 q 51 -318 -75 -440 q 231 -50 177 -196 "},"ˆ":{"x_min":394.421875,"x_max":659.5,"ha":695,"o":"m 659 611 q 648 445 652 525 q 645 440 648 441 q 641 456 642 440 q 626 539 636 513 q 501 474 583 510 q 398 438 420 438 q 394 441 394 438 q 403 446 395 443 q 554 526 478 478 q 659 611 630 575 "},"w":{"x_min":53,"x_max":715.21875,"ha":589,"o":"m 715 213 q 671 161 715 206 q 569 99 613 99 q 519 132 539 99 q 421 16 459 48 q 344 -16 383 -16 q 287 7 310 -16 q 264 64 264 30 q 282 133 264 93 q 122 -16 180 -16 q 73 7 93 -16 q 53 64 53 31 q 92 172 53 103 l 205 363 q 245 358 232 358 q 290 363 256 358 l 136 110 q 100 24 100 51 q 127 -6 100 -6 q 218 61 158 -6 q 339 231 279 129 l 415 363 q 461 359 451 359 q 500 363 485 359 l 357 133 q 311 27 311 56 q 345 -6 311 -6 q 514 140 414 -6 q 510 177 510 165 q 547 302 510 237 q 620 368 585 368 q 636 346 636 368 q 524 138 636 290 q 569 108 541 108 q 694 199 620 108 q 712 216 707 216 q 715 213 714 216 "},"$":{"x_min":189,"x_max":836,"ha":664,"o":"m 836 520 q 788 434 836 469 q 672 400 741 400 q 582 464 582 400 q 609 523 582 491 q 658 556 636 556 q 663 552 663 556 q 661 549 663 549 q 593 466 593 519 q 654 412 593 412 q 744 455 699 412 q 790 541 790 498 q 687 615 790 615 q 547 565 610 615 q 484 456 484 515 q 534 376 484 421 q 611 316 572 346 q 689 185 689 254 q 601 33 689 97 q 393 -31 513 -31 q 362 -29 377 -31 l 226 -283 q 213 -294 220 -294 q 206 -286 206 -294 q 212 -270 206 -281 l 348 -26 q 189 113 189 0 q 257 227 189 173 q 404 280 326 280 q 413 277 412 280 q 398 270 413 273 q 291 211 334 257 q 249 107 249 164 q 287 11 249 46 q 393 -23 325 -23 q 552 25 484 -23 q 619 142 619 74 q 600 201 619 179 q 496 287 581 223 q 411 418 411 352 q 493 561 411 497 q 681 625 576 625 q 710 623 696 625 l 814 821 q 828 836 822 836 q 835 828 835 836 q 829 811 835 825 l 725 620 q 836 520 836 597 "},"\\":{"x_min":579,"x_max":643,"ha":735,"o":"m 643 -140 l 625 -140 l 579 1008 l 597 1008 l 643 -140 "},"’":{"x_min":348.4375,"x_max":497,"ha":290,"o":"m 497 675 q 446 576 497 629 q 396 535 427 556 q 352 515 365 515 q 348 519 348 515 q 353 524 348 522 q 427 585 427 552 q 421 589 427 589 q 390 619 390 589 q 417 675 390 645 q 469 705 445 705 q 497 675 497 705 "},"~":{"x_min":450,"x_max":1109,"ha":926,"o":"m 1109 969 q 936 840 1035 840 q 745 915 885 840 q 619 957 667 957 q 473 837 541 957 l 450 851 q 622 982 525 982 q 787 920 675 982 q 935 865 888 865 q 1087 983 1016 865 l 1109 969 "},"-":{"x_min":186,"x_max":497,"ha":497,"o":"m 497 184 q 441 159 497 176 q 356 142 385 142 q 299 148 329 142 q 247 156 264 156 q 193 143 219 156 q 189 142 192 142 q 186 144 186 142 q 238 170 186 152 q 315 189 291 189 q 373 179 329 189 q 427 171 410 171 q 487 184 459 171 q 494 187 491 187 q 497 184 497 187 "},"Q":{"x_min":106,"x_max":1160,"ha":975,"o":"m 1160 625 q 1096 398 1160 513 q 922 197 1033 284 q 603 38 794 95 q 888 -44 825 -28 q 989 -59 947 -59 q 1102 -12 1051 -59 q 1107 -9 1104 -10 q 1111 -15 1111 -11 q 1078 -47 1111 -25 q 910 -85 1019 -85 q 742 -72 807 -85 q 511 5 654 -53 l 494 12 q 300 -8 405 -8 q 106 54 106 -8 q 255 107 106 107 q 586 44 385 107 q 949 296 803 113 q 1096 678 1096 478 q 1041 841 1096 783 q 890 900 987 900 q 502 713 691 900 q 313 329 313 527 q 361 197 313 245 q 493 150 409 150 q 803 316 666 150 q 917 587 917 456 q 888 677 917 641 q 816 713 860 713 q 769 699 794 713 q 744 674 744 686 q 748 672 745 672 q 759 677 749 672 q 777 682 766 682 q 811 645 811 682 q 795 607 811 623 q 759 591 780 591 q 717 637 717 591 q 745 699 717 673 q 815 725 774 725 q 911 675 873 725 q 949 548 949 626 q 808 265 949 392 q 495 138 668 138 q 324 202 387 138 q 261 375 261 266 q 495 772 261 602 q 892 914 692 914 q 1085 833 1011 914 q 1160 625 1160 753 m 475 19 q 197 86 270 86 q 118 54 118 86 q 301 4 118 4 q 475 19 407 4 "},"M":{"x_min":121,"x_max":2089,"ha":1358,"o":"m 1763 860 q 1744 847 1763 857 q 1604 726 1665 805 q 1467 482 1544 646 q 1266 139 1354 244 q 1047 -10 1177 35 q 1140 -18 1107 -18 q 1307 26 1244 -18 q 1484 225 1370 70 q 1496 234 1492 234 q 1499 230 1499 233 q 1435 142 1499 223 q 1296 7 1357 43 q 1145 -28 1234 -28 q 1024 -16 1089 -28 q 931 -30 979 -30 q 896 -17 896 -30 q 946 0 896 0 q 1019 -7 974 0 l 1028 -7 q 1150 74 1100 18 q 1269 263 1199 130 q 1494 644 1411 532 q 1686 827 1574 751 q 1758 864 1742 864 q 1763 860 1763 864 m 2089 677 q 2083 626 2089 650 q 2071 601 2077 601 q 2066 604 2066 601 q 2067 610 2067 607 q 2078 674 2078 634 q 2006 827 2078 764 q 1830 890 1934 890 q 1487 725 1663 890 q 1368 600 1418 661 q 1179 356 1319 542 q 839 13 972 81 q 762 -17 779 -17 q 758 -12 758 -17 q 772 -1 759 -11 q 878 131 839 47 q 1009 494 914 207 q 1193 844 1090 738 q 1197 850 1197 848 q 1158 821 1189 853 q 920 461 1057 721 q 773 218 836 301 q 622 74 709 136 q 333 -29 478 -29 q 180 10 239 -29 q 121 112 121 50 q 141 171 121 147 q 192 196 161 196 q 236 152 236 196 q 221 113 236 129 q 186 98 207 98 q 153 134 153 98 q 147 148 153 148 q 137 111 137 148 q 192 20 137 55 q 334 -15 247 -15 q 681 168 511 -15 q 797 312 750 242 q 987 617 845 382 q 1121 798 1046 717 q 1228 879 1196 879 q 1233 875 1233 879 q 1230 870 1232 873 q 1116 609 1167 801 q 973 199 1040 327 q 803 10 907 74 q 800 7 800 9 q 803 6 801 7 q 879 49 818 6 q 1014 173 952 101 q 1237 467 1075 245 q 1419 697 1352 624 q 1569 825 1487 770 q 1827 912 1697 912 q 2015 845 1941 912 q 2089 677 2089 779 m 1013 715 q 975 656 1013 700 q 862 591 917 591 q 799 618 825 591 q 774 685 774 645 q 801 778 774 724 q 836 874 836 846 q 803 929 836 908 q 718 951 770 951 q 433 828 566 951 q 301 569 301 706 q 344 453 301 498 q 457 408 388 408 q 580 442 518 408 q 682 532 643 477 q 686 536 685 536 q 691 530 691 536 q 648 477 691 516 q 454 397 558 397 q 335 444 381 397 q 289 567 289 491 q 424 838 289 715 q 722 962 560 962 q 826 928 788 962 q 864 837 864 895 q 820 705 864 793 q 806 655 806 673 q 861 604 806 604 q 935 635 894 604 q 1001 714 976 667 q 1008 720 1005 720 q 1013 715 1013 720 "},"C":{"x_min":243,"x_max":1300,"ha":1107,"o":"m 1300 752 q 1238 660 1300 708 q 1295 509 1295 578 q 1285 493 1295 493 q 1277 515 1277 493 q 1228 652 1277 583 q 961 526 1130 579 q 661 473 792 473 q 629 474 643 473 q 521 182 521 323 q 580 31 521 87 q 742 -24 639 -24 q 1086 160 935 -24 q 1178 372 1178 272 q 1146 456 1178 425 q 1061 488 1114 488 q 879 399 976 488 q 782 232 782 310 q 786 226 782 226 q 791 228 789 226 q 825 245 809 245 q 860 207 860 245 q 810 158 860 158 q 766 212 766 158 q 864 403 766 308 q 1063 499 962 499 q 1194 356 1194 499 q 1052 86 1194 208 q 739 -35 911 -35 q 537 45 619 -35 q 456 245 456 126 q 536 481 456 360 q 243 713 243 536 q 352 890 243 819 q 624 962 461 962 q 1083 810 851 962 q 1165 819 1123 819 q 1300 752 1300 819 m 1289 752 q 1180 808 1289 808 q 1100 798 1146 808 q 1233 669 1180 742 q 1289 752 1289 716 m 1223 662 q 1083 795 1171 737 q 835 676 956 761 q 637 485 714 592 q 951 536 779 485 q 1223 662 1123 588 m 1064 808 q 625 927 858 927 q 374 859 481 927 q 267 700 267 791 q 542 491 267 539 q 1064 808 712 729 "},"[":{"x_min":202,"x_max":1040,"ha":610,"o":"m 1040 971 q 948 952 1040 952 q 870 956 897 952 q 570 432 796 847 q 310 -86 369 63 q 392 -85 358 -83 q 465 -94 433 -86 q 492 -107 494 -102 q 482 -111 489 -111 q 450 -107 481 -111 q 387 -103 419 -103 q 202 -109 250 -103 q 504 438 273 12 q 785 980 661 727 q 932 968 831 970 q 1012 972 967 967 q 1040 971 1040 975 "},"L":{"x_min":121,"x_max":1441,"ha":1054,"o":"m 1441 857 q 1322 672 1441 809 q 1092 453 1204 535 q 917 181 1007 267 q 674 56 827 96 q 997 -26 944 -14 q 1099 -38 1050 -38 q 1227 12 1170 -38 q 1234 15 1233 15 q 1238 12 1237 14 q 1202 -23 1238 1 q 1009 -69 1136 -69 q 830 -51 916 -69 q 567 22 743 -33 q 334 0 454 0 q 121 65 121 0 q 283 126 121 126 q 660 61 410 126 q 792 147 735 90 q 939 337 850 204 q 561 161 736 161 q 370 231 441 161 q 300 422 300 302 q 473 771 300 606 q 841 936 647 936 q 984 889 931 936 q 1038 765 1038 843 q 907 477 1038 626 q 655 329 777 329 q 568 361 604 329 q 533 441 533 394 q 555 505 533 478 q 609 532 578 532 q 652 490 652 532 q 635 450 652 468 q 598 433 619 433 q 566 464 565 433 q 562 483 567 483 q 547 441 547 483 q 579 370 547 399 q 659 342 611 342 q 898 488 771 342 q 1025 763 1025 634 q 977 878 1025 833 q 854 924 929 924 q 510 744 674 924 q 346 369 346 564 q 404 225 346 277 q 565 173 463 173 q 741 216 654 173 q 955 368 828 260 q 1110 616 1062 546 q 1221 750 1156 682 q 1413 882 1346 882 q 1441 857 1441 882 m 1429 857 q 1412 872 1429 872 q 1275 769 1362 872 q 1101 473 1197 678 q 1323 691 1217 567 q 1429 857 1429 815 m 545 29 q 221 104 307 104 q 133 64 133 104 q 341 12 133 12 q 545 29 453 12 "},"!":{"x_min":110,"x_max":613,"ha":399,"o":"m 613 748 q 457 502 613 717 q 232 157 287 268 q 222 149 228 149 q 216 156 216 149 q 225 170 216 158 q 450 629 294 272 q 516 754 490 720 q 574 789 543 789 q 613 748 613 789 m 224 79 q 196 20 224 48 q 139 -7 168 -7 q 110 23 110 -7 q 139 79 110 51 q 197 107 168 107 q 224 79 224 107 "}," ":{"x_min":0,"x_max":0,"ha":246},"{":{"x_min":233,"x_max":984,"ha":610,"o":"m 984 975 q 958 965 984 967 q 793 896 847 957 q 680 648 740 835 q 382 422 615 453 q 396 421 385 422 q 491 361 491 414 q 400 153 491 309 q 315 -36 315 5 q 405 -86 315 -87 q 445 -90 445 -85 q 410 -103 445 -103 q 300 -99 320 -103 q 233 -33 233 -87 q 258 62 233 5 q 363 254 284 120 q 418 375 418 348 q 362 414 418 414 q 352 419 352 414 q 377 431 352 427 q 505 492 463 443 q 607 696 547 540 q 697 865 651 808 q 811 951 741 919 q 957 982 879 982 q 984 975 984 982 "},"X":{"x_min":134,"x_max":1803,"ha":1394,"o":"m 1803 800 q 1790 750 1803 777 q 1765 723 1777 723 q 1759 730 1759 723 q 1769 744 1759 733 q 1791 799 1791 765 q 1759 865 1791 839 q 1678 892 1727 892 q 1282 689 1525 892 q 1069 493 1182 605 l 1060 483 l 1054 470 l 1047 451 q 953 124 953 186 q 1081 -16 953 -16 q 1338 125 1201 -16 q 1475 376 1475 266 q 1444 456 1475 426 q 1362 486 1413 486 q 1236 444 1306 486 q 1112 338 1167 402 q 1097 325 1102 325 q 1093 329 1094 326 q 1126 370 1093 337 q 1366 498 1257 498 q 1458 458 1420 498 q 1496 362 1496 419 q 1354 102 1496 232 q 1072 -28 1212 -28 q 940 27 993 -28 q 888 165 888 82 q 944 384 888 259 q 889 328 930 371 q 576 50 710 136 q 322 -36 442 -36 q 187 2 240 -36 q 134 103 134 41 q 152 159 134 136 q 197 183 170 183 q 243 138 243 183 q 229 101 243 117 q 197 86 215 86 q 165 117 168 86 q 158 133 164 133 q 148 104 148 133 q 194 14 148 50 q 311 -21 240 -21 q 889 347 515 -21 q 954 410 906 365 q 1024 581 989 495 q 1064 759 1064 689 q 1024 867 1064 828 q 915 907 984 907 q 565 758 750 907 q 353 401 353 587 q 400 291 353 333 q 525 249 447 249 q 840 419 688 249 q 949 644 949 541 q 921 712 949 686 q 849 739 894 739 q 640 625 752 739 q 529 413 529 512 q 546 366 529 385 q 587 347 563 346 q 596 344 596 347 q 585 339 596 339 q 525 366 548 339 q 503 441 503 394 q 616 648 503 547 q 848 750 729 750 q 929 720 898 750 q 961 644 961 691 q 808 368 961 510 q 528 236 667 236 q 381 288 436 236 q 327 430 327 341 q 547 779 327 623 q 913 917 742 917 q 1062 862 1005 917 q 1120 718 1120 807 q 1069 509 1120 635 q 1221 659 1076 516 q 1457 845 1339 777 q 1661 914 1575 914 q 1762 881 1722 914 q 1803 800 1803 849 "},"P":{"x_min":158,"x_max":1687,"ha":1068,"o":"m 1687 704 q 1677 627 1687 669 q 1659 585 1668 585 q 1652 592 1652 585 q 1654 598 1652 594 q 1672 700 1672 646 q 1621 838 1672 786 q 1486 890 1570 890 q 1255 815 1374 890 q 1357 631 1357 734 q 1287 480 1357 544 q 1124 416 1217 416 q 1045 430 1087 416 q 1003 458 1003 445 q 1008 462 1004 462 q 1019 458 1012 462 q 1104 434 1061 434 q 1236 500 1181 434 q 1292 659 1292 567 q 1234 801 1292 738 q 955 414 1087 691 q 808 173 875 247 q 622 40 742 99 q 369 -29 480 -29 q 218 12 278 -29 q 158 117 158 54 q 178 176 158 151 q 227 202 199 202 q 269 155 269 202 q 255 116 269 132 q 221 100 241 100 q 187 136 185 100 q 184 151 187 151 q 173 115 173 151 q 228 22 173 59 q 368 -15 284 -15 q 637 94 516 -15 q 727 192 690 142 q 905 455 768 247 q 1066 662 973 558 q 1224 810 1159 765 q 914 901 1118 901 q 416 694 628 901 q 243 374 243 524 q 291 253 243 298 q 423 209 340 209 q 705 340 560 209 q 851 594 851 471 q 749 693 851 693 q 532 580 648 693 q 417 368 417 467 q 433 326 417 343 q 471 308 449 308 q 483 302 483 308 q 470 297 483 297 q 415 326 437 297 q 393 398 393 356 q 509 604 393 504 q 747 705 625 705 q 864 597 864 705 q 715 331 864 465 q 422 197 566 197 q 271 253 328 197 q 215 405 215 310 q 431 755 215 597 q 910 914 648 914 q 1245 824 1109 914 q 1485 902 1369 902 q 1631 847 1576 902 q 1687 704 1687 793 "},"%":{"x_min":326,"x_max":853,"ha":743,"o":"m 832 698 q 825 686 832 693 q 425 65 685 536 q 373 73 398 73 q 335 70 370 73 q 765 629 544 360 l 785 653 q 643 552 739 606 q 543 462 582 519 q 397 355 468 355 q 346 376 366 355 q 326 430 326 397 q 400 562 326 492 q 539 633 474 633 q 590 577 590 633 q 560 495 590 542 q 683 597 605 552 q 818 695 768 645 q 828 702 825 702 q 832 698 831 701 m 572 586 q 542 623 572 623 q 432 539 496 623 q 368 398 368 456 q 397 365 368 365 q 508 445 445 365 q 572 586 572 525 m 853 326 q 785 182 853 259 q 660 105 718 105 q 609 125 629 105 q 589 178 589 145 q 662 311 589 240 q 802 382 736 382 q 853 326 853 382 m 835 336 q 805 372 835 372 q 695 289 760 372 q 631 149 631 206 q 660 115 631 115 q 771 195 708 115 q 835 336 835 275 "},"#":{"x_min":180.6875,"x_max":887.984375,"ha":664,"o":"m 887 444 q 848 432 883 432 l 688 432 l 615 277 l 749 277 q 776 263 780 277 q 737 251 772 251 l 605 251 q 507 44 545 121 q 481 18 493 13 q 481 47 469 22 q 575 251 503 96 l 394 251 q 296 44 359 174 q 270 18 282 13 q 270 47 259 22 q 365 251 293 96 l 199 251 q 181 266 176 251 q 210 278 185 278 l 377 278 l 450 432 l 310 432 q 292 447 287 432 q 321 459 296 459 l 462 459 q 556 661 497 534 q 581 685 569 688 q 582 655 595 680 q 490 459 554 595 l 671 459 q 768 661 708 534 q 792 685 780 688 q 793 655 806 680 q 700 458 765 595 l 861 458 q 887 444 891 458 m 660 432 l 477 432 q 406 278 453 380 l 588 278 l 660 432 "},"_":{"x_min":64,"x_max":759,"ha":695,"o":"m 759 -144 l 64 -144 l 64 -115 l 759 -115 l 759 -144 "},"+":{"x_min":247.21875,"x_max":882.265625,"ha":726,"o":"m 882 358 q 840 346 879 346 l 575 346 l 460 102 q 438 73 447 73 q 434 74 436 73 q 435 107 422 79 l 548 346 l 267 346 q 247 358 244 346 q 288 371 249 371 l 559 371 l 672 612 q 698 643 688 647 q 698 609 712 638 q 585 371 661 529 l 858 371 q 882 358 884 371 "},"‚":{"x_min":52.4375,"x_max":201,"ha":290,"o":"m 201 81 q 150 -18 201 35 q 100 -59 131 -38 q 56 -79 68 -79 q 52 -75 52 -79 q 57 -69 52 -71 q 109 -40 86 -59 q 131 -8 131 -21 q 124 -3 131 -3 q 94 25 94 -3 q 121 81 94 51 q 173 111 148 111 q 201 81 201 111 "},")":{"x_min":-134.96875,"x_max":641.671875,"ha":610,"o":"m 641 690 q 607 439 641 544 q 494 230 573 333 q 290 39 402 112 q 13 -83 178 -34 q -127 -117 -103 -117 q -134 -112 -134 -117 q -118 -104 -134 -107 q 367 211 148 -54 q 585 753 585 477 q 503 966 585 891 q 498 975 498 970 q 504 979 498 979 q 530 958 509 979 q 641 690 641 849 "},"'":{"x_min":522,"x_max":665,"ha":446,"o":"m 665 860 q 634 775 665 833 q 534 566 556 627 l 522 566 q 572 779 543 638 q 638 893 595 893 q 665 860 665 893 "},"Δ":{"x_min":-1,"x_max":749,"ha":695,"o":"m 749 0 q 428 41 591 41 q -1 0 205 41 q 401 354 162 87 q 701 751 609 588 q 692 542 692 667 q 749 0 692 194 m 729 18 q 676 275 700 88 q 653 567 653 450 q 654 606 653 590 q 294 208 475 378 q 62 25 148 71 q 425 66 218 68 q 729 18 588 64 "},"}":{"x_min":-35.65625,"x_max":707,"ha":610,"o":"m 707 887 q 686 814 707 854 q 563 610 666 775 q 505 485 505 517 q 526 446 505 462 q 575 430 547 429 q 590 423 590 430 q 572 413 590 416 q 474 376 503 404 q 404 255 445 348 q 308 56 335 100 q 151 -89 237 -61 q -13 -103 107 -103 q -35 -94 -35 -103 q 7 -86 -35 -85 q 149 -40 99 -87 q 266 152 199 6 q 395 367 343 320 q 559 422 446 414 q 437 516 437 441 q 498 648 437 557 q 577 765 538 706 q 635 896 635 856 q 545 965 635 967 q 529 971 529 965 q 563 982 529 982 q 707 887 707 982 "},"‰":{"x_min":326,"x_max":1125,"ha":1015,"o":"m 1125 327 q 1058 182 1125 259 q 931 105 991 105 q 880 125 900 105 q 861 178 861 145 q 934 311 861 240 q 1073 383 1008 383 q 1125 327 1125 383 m 1107 337 q 1077 373 1107 373 q 967 290 1032 373 q 902 149 902 207 q 931 115 902 115 q 1043 195 979 115 q 1107 337 1107 275 m 832 699 q 825 687 832 694 q 425 66 685 537 q 373 74 398 74 q 335 71 370 74 q 764 630 543 361 l 784 653 q 642 553 739 606 q 543 463 582 520 q 397 356 468 356 q 346 377 366 356 q 326 431 326 398 q 399 563 326 492 q 539 634 473 634 q 590 578 590 634 q 560 496 590 543 q 683 598 605 553 q 817 696 768 646 q 828 703 825 703 q 832 699 831 702 m 572 587 q 542 624 572 624 q 432 540 496 624 q 368 399 368 457 q 397 366 368 366 q 508 446 445 366 q 572 587 572 526 m 852 327 q 784 182 852 259 q 659 105 717 105 q 608 125 628 105 q 588 178 588 145 q 661 311 588 240 q 801 383 735 383 q 852 327 852 383 m 834 337 q 804 373 834 373 q 694 290 759 373 q 630 149 630 207 q 659 115 630 115 q 770 195 707 115 q 834 337 834 275 "},"˛":{"x_min":366,"x_max":563.578125,"ha":695,"o":"m 563 -64 q 511 -107 563 -80 q 430 -134 460 -134 q 366 -77 366 -134 q 434 4 366 -37 l 441 7 q 411 -50 411 -27 q 426 -82 411 -68 q 463 -96 442 -96 q 547 -67 507 -96 q 559 -60 556 -60 q 563 -64 563 -61 "},"a":{"x_min":71,"x_max":603.5625,"ha":478,"o":"m 603 211 q 504 80 603 197 q 378 -16 424 -16 q 327 7 347 -16 q 308 66 308 30 q 329 145 308 102 q 225 17 261 50 q 155 -16 189 -16 q 95 14 119 -16 q 71 92 71 45 q 254 323 71 222 q 384 368 335 368 q 427 327 427 368 q 421 297 427 316 l 456 363 q 492 358 476 358 q 540 363 510 358 l 420 163 q 358 25 358 59 q 384 -6 358 -6 q 470 56 411 -6 q 592 208 530 118 q 599 215 596 215 q 603 211 603 215 m 417 324 q 386 358 417 358 q 222 235 323 358 q 121 38 121 113 q 160 -6 121 -6 q 322 149 207 -6 q 417 324 417 277 "},"T":{"x_min":106,"x_max":1717,"ha":815,"o":"m 1717 832 q 1643 770 1717 795 q 1464 745 1570 745 q 1200 773 1358 745 q 1047 645 1116 730 q 898 404 978 560 q 782 196 819 247 q 681 95 745 144 q 327 -31 510 -31 q 168 10 230 -31 q 106 117 106 51 q 125 174 106 150 q 172 198 145 198 q 217 152 217 198 q 203 114 217 130 q 170 99 189 99 q 138 130 138 99 q 132 146 138 146 q 121 113 121 146 q 177 20 121 58 q 317 -17 234 -17 q 643 147 498 -17 q 818 400 711 223 q 1183 776 993 686 q 1073 798 1147 782 q 810 836 901 836 q 753 833 800 836 q 785 696 785 773 q 671 416 785 547 q 429 286 558 286 q 342 321 376 286 q 309 413 309 357 q 367 584 309 490 q 519 749 426 678 q 724 847 613 819 q 571 920 670 920 q 403 871 488 920 q 253 739 317 822 q 240 726 243 726 q 235 730 236 726 q 290 797 235 742 q 570 931 424 931 q 742 851 683 931 q 930 875 824 875 q 1031 868 985 875 q 1267 822 1079 860 q 1568 891 1423 891 q 1717 832 1717 891 m 1706 831 q 1667 864 1706 850 q 1571 878 1629 878 q 1289 817 1425 878 q 1379 800 1306 814 q 1572 780 1488 780 q 1666 795 1627 780 q 1706 831 1706 810 m 759 730 q 733 830 759 784 q 450 674 581 805 q 320 415 320 542 q 350 333 320 366 q 424 300 380 300 q 649 441 539 300 q 759 730 759 582 "},"—":{"x_min":181.4375,"x_max":829.578125,"ha":829,"o":"m 829 189 q 787 169 829 186 q 649 138 704 138 q 524 154 604 138 q 342 181 399 181 q 194 146 252 181 q 185 143 189 143 q 181 146 182 144 q 272 189 181 162 q 413 217 362 217 q 568 191 455 217 q 704 170 657 170 q 812 189 748 170 q 825 192 820 191 q 829 189 828 192 "},"=":{"x_min":190.71875,"x_max":907.265625,"ha":726,"o":"m 907 413 q 865 401 904 401 l 293 401 q 272 413 269 401 q 314 426 274 426 l 883 426 q 907 413 909 426 m 826 288 q 783 276 823 276 l 211 276 q 191 288 188 276 q 232 300 193 300 l 802 300 q 826 288 828 300 "},"N":{"x_min":121,"x_max":2100,"ha":1210,"o":"m 2100 668 q 2086 611 2100 611 q 2081 615 2081 611 q 2084 639 2081 622 q 2086 664 2086 655 q 2020 817 2086 757 q 1851 877 1954 877 q 1440 611 1647 877 q 1187 213 1375 529 q 1076 49 1133 121 q 1000 -21 1018 -21 q 990 -11 990 -21 q 1020 16 990 1 q 1080 154 1080 44 q 1077 224 1080 175 q 1070 432 1070 345 q 1099 672 1070 578 q 1192 838 1127 766 q 1195 843 1194 840 q 1102 757 1174 846 q 1034 660 1064 711 q 877 381 1004 610 q 624 78 769 185 q 323 -28 480 -28 q 178 11 235 -28 q 121 112 121 50 q 141 171 121 147 q 192 196 161 196 q 236 152 236 196 q 221 114 236 130 q 186 98 207 98 q 153 134 153 98 q 147 148 153 148 q 137 111 137 148 q 190 19 137 55 q 325 -16 243 -16 q 617 102 483 -16 q 926 513 752 221 q 1152 826 1068 751 q 1227 877 1211 877 q 1230 874 1230 876 q 1222 862 1230 873 q 1168 739 1179 804 q 1153 463 1157 675 q 1089 93 1147 204 q 1088 90 1088 93 l 1089 89 q 1294 430 1101 89 q 1566 790 1435 679 q 1849 901 1698 901 q 2029 835 1958 901 q 2100 668 2100 769 m 1014 715 q 975 656 1014 700 q 862 591 917 591 q 799 618 825 591 q 774 685 774 645 q 801 778 774 724 q 836 874 836 846 q 803 929 836 908 q 718 951 770 951 q 434 828 566 951 q 301 569 301 706 q 344 453 301 498 q 457 408 388 408 q 581 443 518 408 q 682 533 643 478 q 686 536 685 536 q 691 530 691 536 q 648 478 691 516 q 454 397 559 397 q 335 444 381 397 q 289 567 289 491 q 425 838 289 715 q 722 962 561 962 q 826 928 788 962 q 864 837 864 895 q 820 705 864 793 q 806 655 806 673 q 861 604 806 604 q 935 635 894 604 q 1001 714 976 667 q 1008 720 1005 720 q 1014 715 1014 720 "},"˚":{"x_min":437,"x_max":583,"ha":500,"o":"m 583 547 q 548 469 583 506 q 475 432 514 432 q 437 470 437 432 q 472 548 437 511 q 547 585 507 585 q 583 547 583 585 m 569 550 q 548 573 569 573 q 487 535 521 573 q 453 466 453 497 q 471 444 453 444 q 534 481 500 444 q 569 550 569 519 "},"⁄":{"x_min":-132,"x_max":610.96875,"ha":94,"o":"m 610 776 q 578 709 610 737 q 515 678 551 685 q 420 569 483 642 q -57 -56 119 210 q -96 -47 -75 -47 q -132 -50 -116 -47 q 156 280 -11 93 q 416 572 385 536 q 511 684 451 615 q 553 737 532 711 q 603 783 591 783 q 610 776 610 783 "},"2":{"x_min":112.5625,"x_max":878,"ha":664,"o":"m 878 576 q 800 409 878 482 q 685 325 745 357 q 453 225 626 294 q 154 38 236 138 q 286 86 214 86 q 436 56 342 86 q 558 32 516 32 q 665 78 616 32 q 732 197 714 125 q 739 206 734 206 q 742 203 741 205 q 696 100 742 164 q 485 -18 611 -18 q 345 9 438 -18 q 205 43 235 43 q 127 -13 134 43 q 118 -29 126 -29 q 112 -23 112 -29 q 166 63 112 8 q 261 142 213 112 q 449 237 313 173 q 716 421 619 317 q 813 628 813 525 q 781 695 813 670 q 696 721 749 721 q 437 598 576 721 q 299 371 299 476 q 390 295 299 295 q 553 366 463 295 q 676 521 643 437 q 682 528 678 528 q 686 523 686 528 q 628 425 686 494 q 511 326 577 365 q 392 288 444 288 q 308 319 340 288 q 277 401 277 350 q 444 638 277 528 q 699 729 581 729 q 828 686 778 729 q 878 576 878 644 "},"j":{"x_min":-447,"x_max":356,"ha":210,"o":"m 356 491 q 335 448 356 468 q 291 429 315 429 q 264 458 264 429 q 284 500 264 480 q 326 521 304 521 q 356 491 356 521 m 336 213 q 261 119 336 203 q 50 -42 184 32 l 15 -103 q -191 -367 -89 -282 q -377 -456 -300 -456 q -447 -392 -447 -456 q -341 -232 -447 -314 q -243 -164 -283 -187 q -53 -73 -182 -128 l -44 -69 l 74 141 q 202 363 123 227 q 233 358 220 358 q 284 363 252 358 q 119 84 229 274 l 57 -29 q 200 68 144 19 q 320 202 255 117 q 334 216 328 216 q 336 213 336 216 m -49 -82 q -295 -216 -243 -180 q -437 -395 -437 -314 q -420 -431 -437 -416 q -380 -446 -404 -446 q -238 -366 -308 -446 q -57 -95 -179 -300 q -49 -82 -57 -95 "},"Z":{"x_min":137,"x_max":1382,"ha":907,"o":"m 1382 847 q 1281 722 1382 811 q 1113 625 1200 650 q 1061 527 1106 613 q 876 288 980 371 q 612 166 773 205 q 794 106 726 160 q 863 -30 863 53 q 673 -326 863 -192 q 340 -453 495 -453 q 194 -412 252 -453 q 137 -310 137 -371 q 156 -251 137 -275 q 204 -228 175 -228 q 248 -272 248 -228 q 233 -311 248 -294 q 199 -327 218 -327 q 172 -317 184 -327 q 161 -294 159 -306 l 163 -284 l 163 -282 q 160 -279 162 -279 q 148 -312 148 -279 q 201 -403 148 -367 q 334 -439 254 -439 q 636 -297 485 -439 q 789 -18 789 -152 q 597 157 789 143 q 470 132 522 132 q 450 141 450 132 q 486 159 450 151 q 570 167 522 167 l 592 167 q 770 280 692 211 q 964 494 849 349 q 1071 624 1031 578 q 940 669 981 626 q 895 807 898 712 q 773 924 891 924 q 429 745 603 924 q 256 393 256 566 q 301 268 256 315 q 421 222 346 222 q 686 363 553 222 q 819 646 819 505 q 793 725 819 695 q 724 755 767 755 q 534 632 636 755 q 432 404 432 509 q 494 329 432 338 q 502 324 502 329 q 494 319 502 319 q 428 353 456 319 q 400 434 400 387 q 507 655 400 544 q 719 767 614 767 q 801 734 771 767 q 832 644 832 702 q 694 353 832 498 q 417 208 557 208 q 277 267 330 208 q 224 425 224 326 q 405 762 224 599 q 783 936 598 936 q 950 858 900 936 q 971 812 966 832 q 986 722 975 796 q 1078 633 998 631 q 1358 870 1283 870 q 1382 847 1382 870 m 1366 843 q 1353 856 1366 856 q 1256 794 1321 856 q 1122 641 1190 733 q 1325 780 1226 674 q 1366 843 1366 826 "},"u":{"x_min":53,"x_max":561.5625,"ha":435,"o":"m 561 211 q 463 80 561 195 q 334 -16 381 -16 q 283 8 304 -16 q 263 66 263 32 q 289 140 263 92 l 275 121 q 184 14 213 41 q 123 -16 152 -16 q 73 7 93 -16 q 53 64 53 30 q 83 155 53 104 l 207 363 q 242 358 230 358 q 289 363 255 358 l 127 96 q 103 24 103 55 q 128 -6 103 -6 q 349 250 197 -6 l 416 363 q 451 358 436 358 q 499 363 467 358 l 390 185 q 313 23 313 59 q 340 -6 313 -6 q 517 164 395 -6 l 538 193 l 550 208 q 557 215 554 215 q 561 211 561 215 "},"1":{"x_min":312,"x_max":847,"ha":664,"o":"m 847 703 q 692 459 847 697 q 521 178 569 268 q 451 -4 474 87 q 409 1 426 1 q 336 -7 389 1 q 617 412 382 128 q 809 661 762 586 q 455 316 633 452 q 317 229 340 229 q 312 233 312 229 q 320 241 312 238 q 820 683 492 319 l 829 693 q 844 707 841 707 q 847 703 847 707 "},"›":{"x_min":76.140625,"x_max":368,"ha":346,"o":"m 368 177 q 91 64 247 155 q 77 58 79 58 l 76 59 q 163 122 76 71 q 291 185 249 173 q 188 271 228 241 q 185 276 185 275 q 240 248 188 277 q 368 177 292 218 "},"˜":{"x_min":430.4375,"x_max":733.203125,"ha":695,"o":"m 733 492 q 695 466 733 483 q 638 449 657 449 q 579 458 617 449 l 565 461 q 482 478 501 478 q 444 467 466 478 q 434 463 437 463 q 430 466 430 463 q 468 493 430 475 q 526 511 505 511 q 608 497 549 511 l 639 489 q 683 484 668 484 q 723 492 706 484 q 730 495 729 495 q 733 492 733 494 "},"k":{"x_min":-14,"x_max":544.5,"ha":418,"o":"m 486 693 q 469 665 480 683 q 416 580 451 636 q 363 493 399 551 l 247 304 q 148 133 188 210 q 74 1 102 48 l 66 -12 q 30 -7 47 -7 q -14 -12 15 -7 q 20 47 1 14 l 99 184 q 152 276 116 215 l 401 693 q 442 687 428 687 q 486 693 456 687 m 544 211 q 537 200 543 209 l 508 160 q 314 -16 379 -16 q 262 3 284 -16 q 240 48 240 23 q 278 145 240 70 l 279 148 q 292 185 292 173 q 270 213 292 200 q 227 202 244 202 q 204 216 204 202 q 226 228 204 228 q 266 221 247 228 q 374 322 300 236 q 456 368 414 368 q 508 319 508 368 q 481 254 508 286 q 430 222 455 222 q 401 248 401 222 q 444 300 401 273 q 463 333 463 312 q 442 350 463 350 q 368 298 412 350 q 277 218 312 234 q 348 142 348 185 q 314 51 348 119 q 300 11 300 22 q 322 -6 300 -6 q 531 208 386 -6 q 540 215 535 215 q 544 211 544 215 "},"ˇ":{"x_min":556.5,"x_max":823,"ha":695,"o":"m 823 606 q 802 597 823 605 q 556 437 637 525 q 570 594 566 534 q 573 608 571 608 q 576 602 574 608 q 591 509 580 542 q 717 574 637 539 q 820 609 797 609 q 823 606 823 608 "},"<":{"x_min":249,"x_max":956,"ha":726,"o":"m 956 617 l 945 587 l 280 340 l 778 87 l 757 71 l 249 329 l 259 358 l 956 617 "},"t":{"x_min":53,"x_max":376.6875,"ha":229,"o":"m 376 368 l 371 358 l 282 358 l 130 99 q 103 24 103 52 q 134 -6 103 -6 q 343 208 196 -6 q 351 215 348 215 q 355 211 355 215 q 348 200 354 209 l 319 160 q 127 -16 192 -16 q 74 7 95 -16 q 53 64 53 30 q 89 166 53 105 l 203 358 l 133 358 l 140 368 l 208 368 l 288 500 q 326 494 308 494 q 366 500 345 494 l 287 368 l 376 368 "},"W":{"x_min":208,"x_max":2350,"ha":1283,"o":"m 2350 1028 q 2328 1011 2350 1011 l 2319 1011 q 2266 1014 2298 1014 q 1890 873 2110 1014 q 1679 709 1764 793 q 1384 371 1592 623 q 992 -36 1133 67 q 938 -71 945 -71 q 935 -68 935 -71 q 954 -48 935 -67 q 1132 292 1040 39 q 1261 621 1213 517 q 1363 794 1309 725 q 1376 812 1376 810 q 1366 807 1371 814 l 1359 800 l 1342 779 q 1135 510 1298 724 q 684 9 878 162 q 563 -71 580 -71 q 560 -67 560 -70 q 568 -58 560 -65 q 823 306 701 63 q 945 694 945 549 q 896 851 945 793 q 765 909 848 909 q 416 713 589 909 q 243 318 243 517 q 288 184 243 235 q 405 134 333 134 q 696 343 559 134 q 785 585 785 479 q 760 666 785 636 q 694 697 735 697 q 647 685 670 697 q 624 661 624 673 q 628 657 624 657 q 635 658 630 657 q 657 661 652 661 q 688 626 688 661 q 671 590 688 605 q 633 575 655 575 q 592 620 592 575 q 623 683 592 656 q 695 710 654 710 q 769 676 741 710 q 798 585 798 642 q 681 298 798 458 q 404 122 551 122 q 263 187 318 122 q 208 352 208 252 q 257 547 208 446 q 394 732 307 649 q 768 922 589 922 q 945 839 873 922 q 1017 635 1017 756 q 909 321 1017 506 q 650 4 802 137 q 635 -10 635 -9 q 637 -13 635 -13 q 772 104 659 -13 q 1208 633 934 272 q 1363 819 1287 737 q 1456 901 1438 901 q 1460 897 1460 901 q 1456 890 1460 894 q 1387 774 1413 833 q 1297 522 1357 707 q 1176 214 1231 320 q 1034 17 1120 105 q 1031 12 1032 14 q 1034 10 1031 10 q 1130 98 1045 10 q 1464 491 1190 160 q 1718 762 1606 663 q 1969 939 1829 862 q 2301 1047 2160 1047 q 2350 1028 2350 1047 "},"v":{"x_min":53,"x_max":505.21875,"ha":379,"o":"m 505 213 q 462 161 505 205 q 359 99 403 99 q 310 131 329 99 q 211 16 249 48 q 135 -16 173 -16 q 76 8 100 -16 q 53 66 53 32 q 98 183 53 106 l 205 363 q 249 359 238 359 q 290 363 275 359 l 148 133 q 102 25 102 55 q 137 -6 102 -6 q 206 24 171 -6 q 306 139 241 55 q 300 175 300 160 q 337 302 300 237 q 411 368 375 368 q 428 348 428 368 q 315 138 428 297 q 359 108 329 108 q 484 199 411 108 q 502 216 498 216 q 505 213 505 216 "},">":{"x_min":157,"x_max":864,"ha":726,"o":"m 864 361 l 852 332 l 157 74 l 168 103 l 832 350 l 335 603 l 355 620 l 864 361 "},"s":{"x_min":20,"x_max":355,"ha":271,"o":"m 355 476 q 270 368 355 449 q 266 331 266 347 q 302 206 266 292 q 321 134 321 164 q 261 28 321 73 q 121 -16 202 -16 q 47 10 74 -16 q 20 80 20 36 q 56 179 20 131 q 130 228 92 228 q 142 225 137 228 l 197 291 q 262 372 221 320 q 297 454 273 420 q 344 488 321 488 q 355 476 355 488 m 261 208 q 259 248 261 228 q 258 305 258 268 q 261 356 258 336 q 151 221 223 308 q 164 194 164 210 q 98 140 164 154 q 53 111 72 134 q 34 63 34 88 q 53 18 34 36 q 102 0 73 0 q 209 66 158 0 q 261 208 261 132 "},"B":{"x_min":158,"x_max":1687,"ha":1291,"o":"m 1687 705 q 1677 627 1687 669 q 1659 586 1668 586 q 1652 592 1652 586 q 1654 598 1652 594 q 1672 701 1672 646 q 1621 838 1672 786 q 1487 890 1570 890 q 1256 816 1375 890 q 1351 651 1351 745 q 1145 472 1351 500 q 1315 255 1315 413 q 1215 51 1315 139 q 983 -35 1116 -35 q 881 -2 919 -35 q 844 86 844 29 q 923 258 844 172 q 1084 343 1003 343 q 1157 314 1129 343 q 1186 242 1186 286 q 1169 177 1186 216 q 1143 137 1153 137 q 1136 143 1136 137 q 1138 151 1136 145 q 1174 244 1174 202 q 1148 306 1174 282 q 1083 330 1123 330 q 933 249 1006 330 q 860 84 860 168 q 890 10 860 39 q 966 -19 921 -19 q 1156 80 1070 -19 q 1243 302 1243 181 q 1134 468 1243 415 l 1095 463 q 1062 461 1078 461 q 1011 478 1011 461 q 1053 490 1011 490 q 1134 478 1084 490 q 1246 553 1205 499 q 1287 678 1287 608 q 1234 801 1287 746 q 955 415 1086 687 q 807 172 874 247 q 622 40 742 99 q 369 -29 480 -29 q 218 12 278 -29 q 158 117 158 54 q 178 176 158 151 q 228 202 199 202 q 269 155 269 202 q 255 116 269 132 q 221 100 241 100 q 187 136 186 100 q 184 151 188 151 q 174 115 174 151 q 229 22 174 59 q 368 -15 284 -15 q 637 94 516 -15 q 728 194 689 142 q 905 457 767 245 q 1066 662 972 558 q 1224 810 1160 766 q 914 901 1117 901 q 416 694 628 901 q 243 374 243 524 q 291 253 243 298 q 423 209 340 209 q 705 340 560 209 q 851 594 851 471 q 749 693 851 693 q 532 580 648 693 q 417 369 417 468 q 433 327 417 345 q 472 309 450 309 q 484 304 484 307 q 471 298 484 298 q 415 327 438 298 q 393 400 393 357 q 509 605 393 505 q 747 705 625 705 q 864 597 864 705 q 715 331 864 465 q 422 197 566 197 q 271 253 328 197 q 215 405 215 310 q 431 755 215 597 q 910 914 648 914 q 1245 824 1107 914 q 1485 902 1369 902 q 1631 847 1576 902 q 1687 705 1687 793 "},"…":{"x_min":155,"x_max":888,"ha":928,"o":"m 888 79 q 860 21 888 50 q 803 -7 832 -7 q 774 22 774 -7 q 802 78 774 50 q 861 107 831 107 q 888 79 888 107 m 579 79 q 551 20 579 48 q 494 -7 523 -7 q 465 22 465 -7 q 493 79 465 51 q 552 107 522 107 q 579 79 579 107 m 269 79 q 241 20 269 48 q 184 -7 214 -7 q 155 23 155 -7 q 184 79 155 51 q 242 107 213 107 q 269 79 269 107 "},"?":{"x_min":210,"x_max":850,"ha":606,"o":"m 850 616 q 721 429 850 510 q 492 330 674 399 q 307 183 307 259 q 342 149 307 149 q 458 227 403 149 q 463 232 460 232 q 466 227 466 231 q 427 180 466 216 q 343 139 381 139 q 297 181 297 139 q 340 257 297 218 q 378 286 360 275 q 494 352 403 302 q 781 665 781 512 q 647 792 781 777 q 653 740 653 765 q 557 511 653 620 q 355 403 461 403 q 281 431 311 403 q 252 504 252 460 q 371 706 252 614 q 635 799 491 799 q 520 882 600 882 q 467 872 492 882 q 460 869 461 869 q 456 873 457 870 q 478 885 456 878 q 520 892 501 892 q 644 799 606 892 q 792 741 735 792 q 850 616 850 690 m 645 740 q 638 792 645 765 q 382 679 501 792 q 272 486 272 576 q 354 413 272 413 q 548 522 451 413 q 645 740 645 632 m 324 79 q 296 20 324 48 q 239 -7 268 -7 q 210 23 210 -7 q 239 79 210 51 q 297 107 268 107 q 324 79 324 107 "},"H":{"x_min":121,"x_max":1896,"ha":1198,"o":"m 1896 728 q 1765 547 1896 620 q 1687 515 1708 515 q 1682 520 1682 515 q 1701 531 1682 523 q 1825 616 1777 561 q 1874 730 1874 671 q 1836 818 1874 784 q 1738 852 1799 852 q 1391 629 1544 852 q 1230 331 1365 590 q 887 -10 1085 53 q 980 -18 946 -18 q 1190 62 1104 -18 q 1325 223 1264 131 q 1335 233 1332 233 q 1338 230 1338 232 q 1274 141 1338 223 q 1136 8 1199 44 q 983 -28 1074 -28 q 861 -18 927 -28 q 769 -32 811 -32 q 734 -16 734 -32 q 790 0 734 0 q 868 -7 821 0 q 1004 89 957 31 q 1154 349 1054 151 l 1165 372 l 901 372 q 790 196 837 253 q 665 85 744 139 q 331 -32 492 -32 q 179 7 238 -32 q 121 111 121 47 q 140 169 121 144 q 188 193 160 193 q 232 148 232 193 q 219 111 232 127 q 185 95 205 95 q 153 127 153 95 q 149 144 155 144 q 137 108 137 144 q 189 17 137 53 q 322 -18 241 -18 q 573 66 466 -18 q 817 372 681 151 l 609 372 l 614 386 l 826 386 q 854 429 834 399 q 1122 751 996 659 q 1192 793 1148 770 q 1247 816 1236 816 q 1251 810 1251 814 q 1237 801 1251 806 q 1088 684 1154 767 q 908 386 1022 602 l 1172 386 q 1448 738 1299 612 q 1738 864 1597 864 q 1852 826 1808 864 q 1896 728 1896 788 m 1016 712 q 976 655 1016 698 q 863 591 917 591 q 798 618 824 591 q 773 685 773 645 q 800 778 773 723 q 835 874 835 847 q 802 929 835 908 q 717 951 769 951 q 432 829 565 951 q 300 569 300 707 q 343 453 300 498 q 455 408 386 408 q 681 531 589 408 q 685 536 682 535 q 690 529 690 536 q 647 477 690 515 q 453 397 557 397 q 334 444 380 397 q 288 567 288 491 q 423 838 288 714 q 721 962 559 962 q 863 837 863 962 q 834 734 863 794 q 805 655 805 675 q 860 604 805 604 q 937 635 894 604 q 1004 711 980 667 q 1011 717 1007 717 q 1016 712 1016 717 "},"c":{"x_min":74,"x_max":462.21875,"ha":336,"o":"m 462 211 q 366 97 462 202 q 189 -16 262 -16 q 107 20 141 -16 q 74 106 74 56 q 120 224 74 163 q 244 330 166 285 q 351 368 310 368 q 402 308 402 368 q 370 214 402 261 q 307 168 338 168 q 277 198 277 168 q 339 265 277 234 q 388 327 388 288 q 354 358 388 358 q 216 245 298 358 q 134 57 134 133 q 193 -6 134 -6 q 446 204 286 -6 q 459 215 455 215 q 462 211 462 214 "},"&":{"x_min":275,"x_max":1385,"ha":1235,"o":"m 1385 309 q 1308 106 1385 189 q 1122 23 1231 23 q 1019 45 1078 23 q 784 -24 912 -24 q 592 24 677 -24 q 468 154 507 72 q 326 253 377 185 q 275 410 275 321 q 416 678 275 569 q 764 787 558 787 q 996 751 880 787 q 1101 851 1048 810 q 1183 892 1155 892 q 1207 869 1207 892 q 1070 723 1207 829 q 1299 546 1214 658 q 1385 309 1385 434 m 1194 869 q 1183 880 1194 880 q 1109 839 1161 880 q 1011 746 1057 799 l 1016 744 l 1030 740 l 1048 731 l 1057 728 q 1152 808 1110 765 q 1194 869 1194 851 m 1045 720 q 1003 735 1023 728 q 951 662 975 702 q 1045 720 987 679 m 1352 336 q 1275 554 1352 456 q 1059 715 1199 653 q 942 641 1012 680 q 891 507 911 581 q 958 514 929 514 q 1034 502 998 514 q 1067 601 1059 554 q 1079 620 1070 620 q 1088 609 1088 620 q 1050 497 1088 579 q 1173 305 1173 444 q 1032 53 1173 157 q 1105 39 1068 39 q 1279 126 1206 39 q 1352 336 1352 214 m 1029 492 q 958 502 992 502 q 888 492 925 502 q 870 322 870 420 q 871 281 870 298 q 1029 492 974 375 m 1149 322 q 1044 487 1149 436 q 872 265 979 358 q 936 117 881 178 q 1029 249 1027 173 q 1043 268 1029 268 q 1059 252 1059 268 q 1024 178 1059 223 q 946 109 989 134 q 986 75 956 99 l 993 70 q 1106 192 1064 124 q 1149 322 1149 260 m 988 741 q 797 772 892 772 q 460 653 606 772 q 315 380 315 534 q 460 173 315 233 q 445 257 445 215 q 651 536 445 419 q 929 651 705 566 q 988 741 951 689 m 916 627 q 844 591 892 615 q 507 204 507 420 q 512 158 507 184 q 567 154 553 154 q 666 168 612 154 q 645 245 645 207 q 706 396 645 326 q 863 498 767 467 q 916 627 879 550 m 859 483 q 728 380 778 447 q 678 240 678 313 q 690 176 678 209 q 843 258 774 203 q 835 331 835 299 q 859 483 835 398 m 922 110 q 845 245 864 174 q 697 163 775 192 q 840 91 737 91 q 922 110 879 91 m 981 63 q 931 102 946 85 q 830 79 878 79 q 674 156 733 79 q 569 140 615 140 q 516 144 548 140 q 613 33 543 75 q 770 -8 683 -8 q 981 63 874 -8 "},"˝":{"x_min":458.5,"x_max":799,"ha":695,"o":"m 799 608 q 662 485 749 548 q 581 434 593 434 q 580 435 580 434 q 586 442 580 436 q 696 544 643 486 q 766 639 749 602 l 799 608 m 676 607 q 540 484 626 547 q 459 434 471 434 q 458 435 459 434 q 465 442 458 436 q 574 545 521 486 q 642 639 626 603 l 676 607 "},"I":{"x_min":96,"x_max":1413,"ha":886,"o":"m 1413 897 q 1357 860 1413 885 q 1229 815 1301 835 q 894 386 1060 695 l 883 366 q 902 365 892 365 q 1055 415 985 365 q 1140 538 1125 466 q 1147 549 1143 549 q 1151 544 1151 549 q 1107 449 1151 502 q 900 353 1027 353 q 876 354 887 353 l 857 317 q 769 175 807 221 q 673 88 734 132 q 325 -32 503 -32 q 160 10 225 -32 q 96 118 96 52 q 116 178 96 153 q 164 203 136 203 q 209 156 209 203 q 194 118 209 134 q 158 103 179 103 q 126 133 126 103 l 126 147 q 122 154 126 153 q 110 119 110 154 q 166 21 110 61 q 308 -18 223 -18 q 676 186 512 -18 q 805 372 724 246 q 691 534 691 422 q 843 735 691 669 q 1086 797 920 769 l 1161 809 l 1225 823 q 1320 877 1261 850 q 1401 904 1379 904 q 1413 897 1413 904 m 1208 810 q 1162 799 1193 807 q 1089 781 1137 792 q 825 666 923 742 q 728 501 728 590 q 811 381 728 416 q 1208 810 991 667 "},"•":{"x_min":503,"x_max":903,"ha":929,"o":"m 903 489 q 844 347 903 405 q 703 289 786 289 q 561 347 619 289 q 503 489 503 405 q 561 631 503 573 q 705 689 620 689 q 845 630 787 689 q 903 489 903 571 "},"ˉ":{"x_min":396,"x_max":707,"ha":695,"o":"m 707 484 l 702 471 l 396 471 l 400 484 l 707 484 "},"G":{"x_min":73.921875,"x_max":1265.5625,"ha":1019,"o":"m 1265 627 q 1213 548 1265 610 q 1106 441 1160 486 q 1036 313 1058 363 q 980 153 1013 262 q 878 -57 939 20 q 708 -196 817 -135 q 385 -284 550 -284 q 160 -207 246 -284 q 73 -8 73 -131 q 139 191 73 96 q 317 344 204 286 q 526 403 430 403 q 540 401 534 403 q 550 461 540 418 q 520 460 537 460 q 346 508 411 460 q 282 636 282 556 q 438 881 282 774 q 798 989 595 989 q 1062 908 960 989 q 1167 935 1133 935 q 1233 880 1233 935 q 1157 755 1233 830 q 1162 693 1162 718 q 1119 536 1162 620 q 1101 511 1106 511 q 1097 515 1098 511 q 1100 522 1098 519 q 1150 696 1150 605 q 1147 747 1150 723 q 894 573 1034 647 q 629 470 755 499 q 596 397 607 435 q 775 202 775 367 l 775 189 q 1106 457 910 225 q 1197 579 1150 526 q 1260 632 1243 632 q 1265 627 1264 632 m 1220 879 q 1169 924 1220 924 q 1074 897 1129 924 q 1154 768 1133 847 q 1220 879 1220 833 m 1144 759 q 1064 893 1127 840 q 822 718 942 833 q 636 483 702 603 q 895 587 756 512 q 1144 759 1034 662 m 1049 904 q 801 975 959 975 q 452 869 611 975 q 294 637 294 764 q 356 515 294 559 q 530 472 419 472 l 554 472 q 1049 904 633 732 m 763 185 q 723 319 768 266 q 594 386 678 372 q 584 316 584 351 q 623 219 584 256 q 726 183 662 183 q 763 185 746 183 m 1083 413 q 772 176 900 211 q 685 6 758 83 q 536 -70 611 -70 q 469 -45 496 -70 q 442 14 442 -21 q 468 82 442 52 q 524 112 493 112 q 572 68 572 112 q 556 33 572 48 q 522 17 541 17 q 486 49 486 17 q 489 64 486 54 q 490 74 490 69 q 486 78 490 78 q 465 56 476 78 q 455 14 455 34 q 478 -37 455 -16 q 536 -59 501 -59 q 678 16 605 -59 q 760 173 751 92 q 726 171 746 171 q 589 229 639 171 q 539 389 539 288 q 240 246 368 378 q 112 -49 112 115 q 185 -208 112 -147 q 376 -270 258 -270 q 667 -156 536 -270 q 971 245 798 -43 q 1083 413 1024 335 "},"(":{"x_min":382,"x_max":1186,"ha":610,"o":"m 1186 978 q 1160 968 1186 972 q 661 660 884 923 q 438 117 438 397 q 521 -96 438 -14 q 525 -103 525 -100 q 521 -107 524 -107 q 478 -66 513 -107 q 382 212 382 43 q 507 590 382 401 q 823 878 633 779 q 1009 949 893 914 q 1176 983 1125 983 q 1186 978 1186 983 "},"`":{"x_min":517,"x_max":607.578125,"ha":695,"o":"m 607 433 q 603 430 606 430 q 558 480 586 430 q 517 587 531 531 l 575 628 q 564 562 564 594 q 602 441 564 491 q 607 433 606 436 "},"U":{"x_min":203,"x_max":1603,"ha":1251,"o":"m 1603 839 q 1132 5 1132 193 q 1162 -70 1132 -40 q 1239 -100 1192 -100 q 1397 -13 1319 -100 q 1407 -7 1404 -7 q 1411 -12 1411 -7 q 1387 -40 1411 -20 q 1239 -112 1307 -112 q 1131 -61 1174 -112 q 1089 64 1089 -11 q 1222 407 1089 194 q 1201 378 1215 397 l 1169 334 q 933 66 1046 163 q 746 -31 820 -31 q 667 4 697 -31 q 638 97 638 39 q 670 220 638 159 q 818 431 703 280 q 971 649 938 588 q 1004 780 1004 711 q 956 882 1004 844 q 826 921 908 921 q 426 732 618 921 q 235 339 235 543 q 278 216 235 262 q 392 170 321 170 q 651 323 527 170 q 782 617 782 484 q 686 730 782 730 q 641 719 662 730 q 620 695 620 708 q 626 690 620 690 q 638 694 630 690 q 648 695 642 695 q 683 662 683 695 q 667 624 683 640 q 629 608 651 608 q 587 652 587 608 q 617 716 587 689 q 688 743 647 743 q 765 709 736 743 q 794 617 794 675 q 666 322 794 484 q 392 157 537 157 q 254 215 306 157 q 203 371 203 274 q 436 776 203 593 q 633 890 527 847 q 823 933 739 933 q 984 877 927 933 q 1041 723 1041 822 q 999 563 1041 639 q 793 270 958 488 q 699 134 721 175 q 677 56 677 93 q 697 1 677 23 q 749 -20 718 -20 q 1030 184 851 -20 q 1497 835 1210 389 q 1537 832 1533 832 q 1603 839 1563 832 "},"◊":{"x_min":292,"x_max":781,"ha":695,"o":"m 781 347 q 536 138 676 288 q 358 -85 415 8 q 359 -49 359 -68 q 342 153 359 44 q 292 347 323 278 q 538 556 399 407 q 714 779 656 684 q 713 741 713 762 q 729 540 713 646 q 781 347 748 415 m 768 351 q 713 512 744 395 q 681 680 681 629 q 469 458 599 564 q 302 343 377 384 q 360 181 329 297 q 390 15 389 69 q 596 229 477 128 q 768 351 698 316 "},"F":{"x_min":81,"x_max":1723,"ha":917,"o":"m 1723 791 q 1656 735 1723 758 q 1496 712 1590 712 q 1197 748 1374 712 q 1038 625 1111 708 q 881 386 966 542 q 951 375 923 379 q 1059 462 989 462 q 1108 425 1108 462 q 1075 377 1108 395 q 991 358 1043 358 l 977 358 q 960 322 975 355 q 912 255 943 283 q 852 228 880 228 q 842 232 842 228 q 849 237 842 235 q 944 363 896 251 q 887 371 924 365 l 874 373 q 847 323 865 357 q 752 174 788 219 q 654 86 716 129 q 315 -29 490 -29 q 146 14 212 -29 q 81 124 81 57 q 101 182 81 158 q 149 207 121 207 q 194 161 194 207 q 180 125 194 140 q 146 110 166 110 q 113 142 113 110 q 108 158 115 158 q 96 122 96 158 q 155 25 96 65 q 298 -15 214 -15 q 536 63 430 -15 q 768 336 641 142 q 799 384 778 352 l 787 384 q 681 326 711 384 q 674 317 678 317 q 669 322 669 317 q 707 373 669 349 q 788 397 745 397 l 808 397 q 1180 753 986 666 q 1072 779 1128 764 q 790 827 890 827 q 751 826 770 827 q 781 699 781 769 q 665 420 781 551 q 417 289 549 289 q 327 323 362 289 q 293 415 293 358 q 426 674 293 543 q 724 840 559 806 q 565 917 672 917 q 250 747 391 917 q 237 736 238 736 q 232 741 233 736 q 289 806 232 753 q 561 928 420 928 q 742 843 686 928 q 909 862 814 862 q 1021 852 970 862 q 1265 796 1071 842 q 1549 855 1417 855 q 1675 837 1627 855 q 1723 791 1723 820 m 1710 790 q 1665 826 1710 811 q 1558 842 1621 842 q 1287 790 1410 842 l 1378 770 q 1587 744 1492 744 q 1673 758 1636 744 q 1710 790 1710 772 m 1096 423 q 1062 452 1096 452 q 987 383 1018 452 l 982 371 l 999 371 q 1068 386 1041 371 q 1096 423 1096 400 m 756 731 q 733 822 756 776 q 441 673 577 802 q 305 416 305 544 q 335 336 305 369 q 410 303 365 303 q 642 444 528 303 q 756 731 756 585 "},"r":{"x_min":86,"x_max":512.5625,"ha":386,"o":"m 512 211 q 471 161 512 206 q 374 105 420 105 q 323 164 323 105 q 331 213 323 183 q 261 139 288 175 q 169 -10 234 102 q 127 -7 133 -7 q 86 -10 124 -7 l 197 170 q 281 338 281 306 q 265 358 281 358 q 127 211 227 358 q 116 202 121 202 q 113 206 113 203 q 116 211 114 209 l 128 228 q 270 368 233 368 q 325 298 325 368 q 269 159 325 245 q 336 226 304 200 q 400 327 362 286 q 469 368 438 368 q 490 349 490 368 q 395 256 490 317 q 350 228 380 246 l 342 221 q 333 170 333 190 q 375 113 333 113 q 491 200 428 113 q 508 215 505 215 q 512 211 512 215 "},":":{"x_min":122,"x_max":358,"ha":310,"o":"m 358 278 q 330 219 358 247 q 273 192 303 192 q 244 222 244 192 q 272 278 244 250 q 331 306 301 306 q 358 278 358 306 m 236 79 q 208 20 236 48 q 151 -7 180 -7 q 122 23 122 -7 q 151 79 122 51 q 209 107 180 107 q 236 79 236 107 "},"x":{"x_min":64,"x_max":608.5625,"ha":484,"o":"m 608 211 q 605 206 608 211 l 597 195 q 460 31 508 76 q 368 -16 409 -16 q 297 15 328 -16 q 267 88 267 47 q 276 140 267 106 q 115 -16 184 -16 q 78 0 93 -16 q 64 41 64 17 q 89 106 64 76 q 143 136 114 136 q 179 101 179 136 q 123 47 179 62 q 93 16 93 39 q 118 -4 93 -4 q 233 87 168 -4 q 336 316 336 231 q 298 358 336 358 q 134 218 234 358 q 118 202 122 202 q 115 206 115 203 q 182 293 115 218 q 302 368 249 368 q 369 340 343 368 q 396 270 396 312 q 386 224 396 249 q 547 368 479 368 q 599 312 599 368 q 576 250 599 279 q 528 222 554 222 q 495 256 495 222 q 543 304 495 289 q 574 336 574 313 q 546 358 574 358 q 406 241 488 358 q 324 45 324 125 q 372 -6 324 -6 q 590 200 443 -6 q 604 215 601 215 q 608 211 608 215 "},"*":{"x_min":357.578125,"x_max":682.1875,"ha":386,"o":"m 682 713 q 634 676 675 681 q 581 686 625 675 q 524 688 561 690 q 555 645 534 669 q 598 597 574 629 q 596 553 608 572 q 566 553 583 534 q 541 624 558 562 q 519 683 532 657 q 492 627 503 654 q 467 551 485 597 q 422 524 450 524 q 409 551 400 524 q 470 629 413 561 q 513 688 501 665 q 452 673 481 684 q 385 653 427 664 q 363 657 371 652 q 358 672 355 663 q 400 705 365 702 q 456 697 415 706 q 512 693 484 691 q 484 729 500 711 q 441 780 464 748 q 444 825 430 804 q 473 829 456 841 q 499 755 485 818 q 519 696 505 730 q 544 758 527 714 q 573 833 561 814 q 614 861 590 861 q 631 833 637 861 q 573 755 626 812 q 526 694 534 715 q 610 718 538 696 q 654 729 631 725 q 675 727 667 732 q 682 713 683 721 "},"†":{"x_min":342.015625,"x_max":841,"ha":664,"o":"m 841 541 q 823 505 841 520 q 782 491 806 491 q 710 509 762 491 q 616 527 668 523 q 601 441 609 506 q 579 329 592 364 q 518 204 568 299 q 367 -169 432 44 q 351 -184 362 -184 q 342 -175 342 -184 q 364 -125 342 -171 q 478 223 441 32 q 506 338 493 302 q 564 451 520 373 q 602 527 594 504 q 515 514 561 526 q 424 494 443 494 q 378 523 378 494 q 435 568 378 568 q 520 549 455 568 q 604 539 559 539 q 665 788 627 609 q 744 922 694 922 q 775 882 775 922 q 762 833 775 859 q 683 680 753 812 q 619 539 643 604 q 764 564 672 540 q 800 569 779 569 q 841 541 841 569 "},"V":{"x_min":208,"x_max":2091,"ha":1040,"o":"m 2091 964 q 2072 947 2091 947 l 2060 947 q 1999 952 2023 952 q 1587 799 1824 952 q 1393 649 1473 725 q 1106 336 1317 575 q 731 -38 857 53 q 658 -87 664 -87 q 654 -83 654 -87 q 668 -62 654 -82 q 875 305 789 92 q 961 660 961 518 q 775 890 961 890 q 606 839 701 890 q 431 709 510 789 q 295 515 346 622 q 244 314 244 407 q 289 181 244 230 q 412 133 334 133 q 705 325 562 133 q 807 570 807 462 q 782 648 807 619 q 718 677 758 677 q 672 666 695 677 q 650 645 650 656 q 654 641 650 641 l 660 641 q 680 644 678 644 q 711 610 711 644 q 694 574 711 589 q 656 559 678 559 q 615 602 615 559 q 645 664 615 637 q 718 690 676 690 q 791 658 763 690 q 819 573 819 625 q 687 282 819 440 q 410 121 553 121 q 264 183 321 121 q 208 344 208 245 q 397 717 208 533 q 778 901 586 901 q 964 821 893 901 q 1036 612 1036 741 q 957 321 1036 473 q 706 -33 879 168 q 699 -42 699 -41 l 700 -44 q 785 18 712 -44 q 902 131 841 65 q 1188 453 956 190 q 1429 699 1325 609 q 1663 863 1534 789 q 2035 984 1874 984 q 2091 964 2091 984 "},"μ":{"x_min":-196,"x_max":608.5625,"ha":484,"o":"m 608 211 q 601 200 607 209 l 572 160 q 381 -16 443 -16 q 330 8 351 -16 q 309 66 309 32 q 335 140 309 94 q 175 -16 238 -16 q 132 35 132 -16 q 133 58 132 49 l -109 -375 q -155 -369 -149 -369 q -196 -378 -174 -369 l 252 363 q 289 358 275 358 q 336 363 300 358 l 174 96 q 154 31 154 62 q 183 -6 154 -6 q 395 250 247 -6 l 460 363 q 495 358 484 358 q 546 363 512 358 l 435 185 q 359 23 359 62 q 386 -6 359 -6 q 597 208 448 -6 q 604 215 601 215 q 608 211 608 215 "},"h":{"x_min":-8,"x_max":560.5,"ha":435,"o":"m 560 213 q 553 201 560 208 l 524 161 q 334 -16 396 -16 q 280 7 301 -16 q 260 66 260 30 q 311 190 260 113 q 393 331 393 309 q 365 358 393 358 q 253 278 324 358 q 67 -12 185 201 q 32 -7 46 -7 q -8 -12 17 -7 l 91 168 q 154 282 112 206 q 291 515 176 318 l 395 690 q 429 686 415 686 q 481 693 456 686 q 270 353 410 579 q 165 179 266 347 q 367 368 293 368 q 417 342 396 368 q 438 281 438 317 q 378 146 438 234 q 312 23 312 48 q 341 -6 312 -6 q 515 165 393 -6 l 536 194 l 548 209 q 557 216 552 216 q 560 213 560 216 "},"0":{"x_min":186,"x_max":876,"ha":664,"o":"m 876 536 q 720 205 876 381 q 370 -8 531 -8 q 237 49 289 -8 q 186 198 186 107 q 409 569 186 381 q 718 732 603 732 q 833 678 790 732 q 876 536 876 624 m 826 610 q 719 722 826 722 q 517 619 632 722 q 330 384 408 521 q 249 129 249 239 q 369 2 249 2 q 668 209 518 2 q 782 417 739 307 q 826 610 826 527 "},".":{"x_min":122,"x_max":236,"ha":310,"o":"m 236 79 q 208 20 236 48 q 151 -7 180 -7 q 122 23 122 -7 q 151 79 122 51 q 209 107 180 107 q 236 79 236 107 "},"”":{"x_min":346.421875,"x_max":628,"ha":418,"o":"m 628 675 q 552 552 628 611 q 482 515 505 515 q 478 519 478 515 q 491 527 478 522 q 536 555 515 536 q 556 585 556 573 q 550 589 556 589 q 521 617 521 589 q 548 675 521 646 q 600 705 575 705 q 628 675 628 705 m 495 675 q 444 576 495 629 q 394 535 425 556 q 350 515 363 515 q 346 519 346 515 q 351 524 346 522 q 425 585 425 552 q 418 589 425 589 q 388 619 388 589 q 415 675 388 645 q 467 705 443 705 q 495 675 495 705 "},"@":{"x_min":228,"x_max":1138,"ha":945,"o":"m 1128 357 q 1039 218 1104 278 q 988 95 1034 150 q 629 -37 873 -37 q 361 35 472 -37 q 228 288 228 124 q 395 597 228 473 q 782 718 557 718 q 1041 623 938 718 q 1138 421 1138 536 q 1128 357 1138 388 m 1101 432 q 1016 623 1101 542 q 779 711 925 711 q 416 591 564 711 q 265 287 265 469 q 386 48 265 137 q 630 -29 491 -29 q 979 99 866 -29 q 1029 208 1020 147 q 821 123 930 123 q 797 124 811 123 q 698 221 698 137 q 720 300 698 257 q 615 171 651 204 q 546 139 579 139 q 485 169 509 139 q 461 247 461 200 q 644 477 461 376 q 776 522 726 522 q 817 482 817 522 q 812 451 817 470 l 847 517 q 882 512 867 512 q 930 517 900 512 l 810 318 q 748 180 748 214 q 808 131 748 136 q 924 158 863 125 q 1031 249 985 190 q 994 351 1028 310 q 985 364 984 363 q 999 357 988 367 q 1039 259 1032 323 q 1101 432 1101 345 m 807 478 q 776 512 807 512 q 612 389 714 512 q 511 193 511 267 q 550 149 511 149 q 712 304 596 149 q 807 478 807 430 "},"f":{"x_min":-422.953125,"x_max":586,"ha":184,"o":"m 586 698 q 500 546 586 637 q 276 368 415 455 l 393 368 l 387 358 l 269 358 l 213 250 q 38 -50 111 50 q -129 -231 -34 -152 q -372 -340 -260 -340 q -422 -325 -422 -340 q -415 -318 -422 -318 q -407 -320 -410 -318 q -361 -327 -382 -327 q -176 -245 -269 -327 q -76 -127 -119 -194 q 90 168 -41 -72 l 194 358 l 121 358 l 127 368 l 201 368 q 393 622 288 515 q 555 730 498 730 q 586 698 586 730 m 578 699 q 555 722 578 722 q 415 604 504 722 q 282 382 370 544 q 485 558 393 459 q 578 699 578 656 "},";":{"x_min":61,"x_max":344,"ha":310,"o":"m 344 283 q 316 224 344 252 q 259 197 288 197 q 230 226 230 197 q 258 283 230 255 q 317 311 287 311 q 344 283 344 311 m 210 81 q 160 -18 210 35 q 109 -58 141 -38 q 65 -79 78 -79 q 61 -75 61 -79 q 66 -68 61 -70 q 118 -40 95 -58 q 141 -8 141 -21 q 134 -4 141 -4 q 104 25 104 -4 q 131 81 104 51 q 182 111 158 111 q 210 81 210 111 "},"“":{"x_min":354,"x_max":630.578125,"ha":418,"o":"m 630 700 q 625 695 630 697 q 550 634 550 667 q 557 630 550 630 q 588 600 588 630 q 560 544 588 574 q 509 515 533 515 q 482 544 482 515 q 536 643 482 582 q 626 704 591 704 q 630 700 630 704 m 502 700 q 490 692 502 697 q 444 664 465 682 q 423 634 423 646 q 430 630 423 630 q 461 600 461 630 q 433 544 461 574 q 381 515 406 515 q 354 544 354 515 q 408 643 354 582 q 498 704 463 704 q 502 700 502 704 "},"i":{"x_min":53,"x_max":358.578125,"ha":233,"o":"m 348 492 q 328 448 348 469 q 284 428 308 428 q 254 458 254 428 q 274 501 254 480 q 318 522 295 522 q 348 492 348 522 m 358 211 q 351 200 357 209 l 322 160 q 127 -16 194 -16 q 74 6 95 -16 q 53 63 53 29 q 99 183 53 102 l 205 363 q 238 358 226 358 q 290 363 256 358 l 136 109 q 103 24 103 54 q 134 -6 103 -6 q 347 208 195 -6 q 354 215 351 215 q 358 211 358 215 "},"6":{"x_min":221,"x_max":899,"ha":664,"o":"m 899 792 q 885 785 899 785 l 872 785 q 573 613 751 785 q 308 239 395 441 q 466 417 376 349 q 637 485 557 485 q 747 443 705 485 q 790 334 790 401 q 658 100 790 214 q 387 -14 526 -14 q 266 34 311 -14 q 221 166 221 83 q 322 423 221 289 q 605 678 423 557 q 763 763 679 727 q 886 799 847 799 q 899 792 899 799 m 732 384 q 630 476 732 476 q 400 349 522 476 q 279 110 279 222 q 305 25 279 57 q 376 -6 331 -6 q 606 131 481 -6 q 732 384 732 269 "},"A":{"x_min":121,"x_max":1938,"ha":1262,"o":"m 1210 689 q 1185 653 1210 682 q 1054 574 1116 574 q 990 601 1015 574 q 966 673 966 628 q 1010 796 966 711 q 1032 861 1032 836 q 994 919 1032 895 q 902 944 956 944 q 614 824 747 944 q 482 566 482 705 q 526 450 482 495 q 641 406 570 406 q 795 461 717 406 q 905 596 873 517 q 910 603 907 603 q 916 596 916 603 q 892 545 916 582 q 844 485 869 509 q 638 395 752 395 q 514 442 561 395 q 468 568 468 489 q 605 833 468 711 q 905 956 743 956 q 1016 920 976 956 q 1057 823 1057 885 q 1024 714 1057 777 q 995 636 995 656 q 1054 586 995 586 q 1195 686 1122 586 q 1205 694 1201 694 q 1210 689 1210 694 m 1938 813 q 1923 800 1938 800 q 1878 809 1917 800 q 1757 824 1805 824 q 1564 695 1648 790 q 1373 384 1480 599 q 952 -3 1209 55 q 1045 -12 1006 -12 q 1255 67 1170 -12 q 1392 231 1337 145 q 1401 241 1398 241 q 1406 238 1405 241 q 1328 133 1406 228 q 1195 11 1255 44 q 1049 -22 1136 -22 q 929 -7 1000 -22 q 829 -22 885 -22 q 790 -7 790 -22 q 842 8 790 8 q 929 1 880 8 q 1088 84 1034 26 q 1296 396 1142 141 l 1035 396 q 778 147 869 221 q 378 -25 565 -25 q 195 25 270 -25 q 121 147 121 75 q 143 211 121 184 q 199 237 166 237 q 244 194 244 237 q 228 156 244 172 q 192 140 213 140 q 160 171 160 140 l 162 184 q 163 192 163 187 q 157 198 163 198 q 143 181 150 198 q 137 147 137 164 q 206 34 137 80 q 378 -11 276 -11 q 698 132 524 -11 q 787 216 738 164 q 942 374 884 317 l 962 396 l 831 396 l 839 408 q 972 407 904 408 q 1358 730 1171 628 q 1753 834 1545 832 q 1843 843 1801 843 q 1938 813 1938 843 m 1723 821 q 1394 719 1545 812 q 1046 407 1243 626 l 1303 407 q 1512 678 1389 558 q 1723 821 1633 798 "},"‘":{"x_min":354,"x_max":502.5625,"ha":290,"o":"m 502 700 q 490 692 502 697 q 444 664 465 682 q 423 634 423 646 q 430 630 423 630 q 461 600 461 630 q 433 544 461 574 q 381 515 406 515 q 354 544 354 515 q 408 643 354 582 q 498 704 463 704 q 502 700 502 704 "},"π":{"x_min":-8,"x_max":698.625,"ha":501,"o":"m 698 410 q 677 369 698 393 q 556 326 643 330 q 530 290 541 313 q 388 62 447 121 q 226 -17 309 -17 q 187 -1 187 -17 q 191 3 187 3 q 199 2 197 3 q 235 -7 215 -7 q 344 59 290 -7 q 390 135 364 85 q 438 229 433 220 q 534 326 473 291 q 465 330 520 326 q 381 334 405 334 q 347 288 361 317 q 209 63 266 119 q 30 -17 128 -17 q -8 -1 -8 -17 q -3 3 -8 3 q 14 -1 1 3 q 40 -7 27 -7 q 162 59 105 -7 q 211 138 184 85 q 260 234 258 230 q 368 334 300 304 q 223 330 264 337 q 146 279 146 317 l 146 268 q 141 264 145 264 q 133 268 134 264 q 153 310 133 285 q 265 367 199 362 q 441 359 300 369 q 616 355 571 350 q 685 399 685 361 l 685 410 q 690 416 685 416 q 698 410 698 416 "},"n":{"x_min":86,"x_max":669.5625,"ha":543,"o":"m 669 211 q 571 80 669 197 q 444 -16 490 -16 q 393 7 414 -16 q 373 66 373 31 q 385 122 373 96 q 451 226 398 148 q 506 330 506 307 q 476 358 506 358 q 170 -10 377 358 q 130 -7 137 -7 q 86 -10 107 -7 l 191 157 q 282 337 282 301 q 265 358 282 358 q 128 211 230 358 q 119 202 122 203 q 115 206 116 202 q 118 211 116 209 l 131 228 q 270 368 234 368 q 309 346 293 368 q 326 296 326 325 q 275 176 326 253 q 398 327 355 286 q 478 368 441 368 q 528 343 508 368 q 549 283 549 319 q 486 144 549 237 q 423 21 423 48 q 450 -6 423 -6 q 658 208 511 -6 q 665 215 662 215 q 669 211 669 215 "},"O":{"x_min":339,"x_max":1260,"ha":1101,"o":"m 1260 541 q 1201 330 1260 438 q 1040 136 1143 223 q 827 3 941 52 q 619 -46 714 -46 q 416 38 494 -46 q 339 259 339 123 q 416 514 339 384 q 625 737 493 643 q 836 846 718 804 q 1047 889 953 889 q 1197 843 1141 889 q 1253 722 1253 798 q 1242 648 1253 691 q 1260 541 1260 594 m 1242 721 q 1193 831 1242 789 q 1067 873 1145 873 q 751 769 911 873 q 501 513 599 669 q 399 194 399 352 q 458 31 399 94 q 611 -32 517 -32 q 992 163 801 -32 q 1205 572 1184 358 q 1123 476 1182 531 q 1043 421 1064 421 q 1037 426 1037 421 q 1048 436 1037 429 q 1207 597 1158 497 q 1157 732 1207 682 q 1023 782 1108 782 q 700 614 866 782 q 535 286 535 446 q 564 182 535 222 q 643 143 594 143 q 689 156 665 143 q 713 183 713 170 q 711 187 713 187 q 705 184 711 187 q 678 176 697 176 q 647 213 647 176 q 662 252 647 236 q 699 267 678 267 q 743 219 743 267 q 712 157 743 183 q 640 131 681 131 q 542 178 581 131 q 504 298 504 226 q 676 628 504 464 q 1022 793 849 793 q 1154 758 1095 793 q 1233 666 1212 723 q 1242 721 1242 693 "},"3":{"x_min":139,"x_max":838,"ha":664,"o":"m 838 608 q 558 398 838 447 q 723 231 723 361 q 610 59 723 133 q 351 -14 498 -14 q 198 23 258 -14 q 139 119 139 60 q 198 222 139 179 q 342 265 258 265 q 405 257 405 265 q 401 252 405 252 l 396 252 q 354 257 371 257 q 229 214 280 257 q 178 111 178 172 q 218 28 178 60 q 322 -3 258 -3 q 550 85 446 -3 q 655 279 655 173 q 547 394 655 366 q 452 385 489 385 q 417 394 417 385 q 467 408 417 408 q 547 401 505 408 q 711 501 650 435 q 773 642 773 566 q 663 729 773 729 q 473 663 568 729 q 378 531 378 598 q 456 471 378 471 q 562 508 503 471 q 654 597 621 545 q 663 604 658 604 q 665 601 665 603 q 639 565 665 593 q 591 519 613 537 q 453 463 519 463 q 388 486 413 463 q 363 546 363 509 q 459 675 363 614 q 664 737 555 737 q 790 702 743 737 q 838 608 838 667 "},"]":{"x_min":125,"x_max":962,"ha":610,"o":"m 962 976 q 659 427 890 854 q 378 -114 502 138 q 231 -102 333 -104 q 153 -105 198 -100 q 125 -104 125 -108 q 216 -85 125 -85 q 293 -89 266 -85 q 594 434 368 19 q 854 953 794 803 q 772 952 805 950 q 698 961 731 953 q 672 973 669 968 q 681 977 674 977 q 714 973 683 977 q 776 970 745 970 q 962 976 913 970 "},"m":{"x_min":85,"x_max":881.5625,"ha":756,"o":"m 881 211 q 874 200 880 209 l 845 160 q 656 -16 717 -16 q 604 7 624 -16 q 584 68 584 31 q 609 150 584 106 q 659 223 614 159 q 716 330 716 305 q 688 358 716 358 q 381 -10 598 358 q 343 -7 367 -7 q 296 -10 315 -7 l 392 142 q 487 327 487 293 q 461 358 487 358 q 339 250 424 358 q 171 -10 254 143 q 131 -7 155 -7 q 85 -10 104 -7 l 181 142 q 282 337 282 300 q 266 358 282 358 q 128 211 233 358 q 117 202 121 202 q 114 206 114 203 q 177 291 114 212 q 271 368 238 368 q 309 347 293 368 q 325 298 325 326 q 284 188 325 258 q 466 368 407 368 q 513 344 495 368 q 532 287 532 321 q 496 188 532 248 q 689 368 625 368 q 738 342 718 368 q 759 281 759 317 q 725 183 759 239 q 667 96 725 182 q 634 21 634 47 q 661 -6 634 -6 q 837 164 714 -6 l 858 193 l 870 208 q 877 215 874 215 q 881 211 881 215 "},"9":{"x_min":151,"x_max":850,"ha":664,"o":"m 850 555 q 746 306 850 440 q 463 59 642 172 q 296 -26 385 9 q 162 -61 208 -61 q 151 -54 151 -61 q 167 -45 151 -45 l 177 -45 q 483 118 300 -45 q 754 471 666 282 q 590 307 688 372 q 412 243 493 243 q 308 282 347 243 q 269 388 269 322 q 408 617 269 509 q 554 703 475 670 q 690 737 634 737 q 805 686 761 737 q 850 555 850 636 m 792 613 q 692 729 792 729 q 456 590 587 729 q 326 340 326 451 q 419 253 326 253 q 565 303 480 253 q 711 426 650 353 q 792 613 792 521 "},"l":{"x_min":57,"x_max":482,"ha":222,"o":"m 482 692 q 150 135 197 218 q 103 24 103 51 q 128 -6 103 -6 q 337 208 185 -6 q 345 215 340 215 q 348 211 348 214 q 341 200 348 207 l 312 160 q 123 -16 184 -16 q 75 6 94 -16 q 57 62 57 28 q 74 134 57 99 q 192 335 91 169 q 399 690 314 540 q 434 684 419 684 q 482 692 460 684 "},"8":{"x_min":174,"x_max":900,"ha":664,"o":"m 900 630 q 612 426 900 511 q 698 329 676 366 q 720 247 720 293 q 616 66 720 146 q 383 -14 513 -14 q 231 28 289 -14 q 174 140 174 71 q 254 283 174 222 q 528 409 334 343 q 461 534 461 476 q 548 679 461 613 q 743 745 636 745 q 854 711 809 745 q 900 630 900 678 m 855 651 q 823 711 855 687 q 743 736 791 736 q 591 686 657 736 q 526 571 526 636 q 553 494 526 534 q 608 432 564 479 q 788 530 721 470 q 855 651 855 589 m 650 203 q 613 313 650 260 q 533 404 602 328 q 227 116 227 292 q 382 -6 227 -6 q 570 56 491 -6 q 650 203 650 118 "},"p":{"x_min":-243,"x_max":449,"ha":368,"o":"m 449 259 q 311 57 449 148 q 136 -16 199 -16 q 93 24 93 -16 q 99 57 93 36 l -160 -375 q -198 -369 -183 -369 q -243 -378 -221 -369 l 314 538 q 350 531 332 531 q 395 538 368 531 l 193 211 q 298 338 266 308 q 364 368 331 368 q 424 336 400 368 q 449 259 449 305 m 399 313 q 359 358 399 358 q 193 198 310 358 q 103 28 103 74 q 134 -6 103 -6 q 298 115 197 -6 q 399 313 399 237 "},"4":{"x_min":66,"x_max":1086,"ha":664,"o":"m 1086 790 q 1079 785 1086 785 q 1073 786 1077 785 q 1012 798 1041 798 q 559 512 835 798 q 359 318 423 372 q 210 219 295 264 q 420 240 290 240 q 501 237 469 240 q 662 465 538 294 q 796 667 769 612 q 804 676 799 676 q 807 673 807 675 q 805 669 807 672 l 799 655 q 701 479 790 639 q 572 233 615 323 q 649 230 613 230 q 764 261 720 230 q 809 341 809 292 q 799 380 809 359 q 798 387 798 383 q 802 391 798 391 q 817 341 817 391 q 557 205 817 205 q 486 -3 498 75 q 435 5 460 5 q 368 -3 404 5 q 480 205 403 94 q 408 210 465 205 q 289 219 327 219 q 206 213 252 219 q 77 162 125 162 q 66 169 66 162 q 196 219 66 192 q 352 328 290 274 q 552 523 411 378 q 1012 812 833 812 q 1061 805 1037 812 q 1086 790 1086 798 "},"‡":{"x_min":268,"x_max":855,"ha":664,"o":"m 855 536 q 837 503 855 517 q 793 490 819 490 q 719 508 772 490 q 625 524 681 520 q 595 413 612 487 q 572 335 580 356 q 534 263 557 310 q 511 211 527 250 q 597 223 558 213 q 688 242 669 242 q 740 216 740 242 q 721 186 740 198 q 678 173 703 173 q 593 190 658 173 q 507 200 555 200 q 476 83 496 164 q 447 -59 466 35 q 372 -186 420 -186 q 336 -147 336 -186 q 349 -88 336 -117 q 428 59 361 -60 q 493 200 478 151 q 347 176 437 198 q 310 172 330 172 q 268 198 268 172 q 286 231 268 217 q 330 244 304 244 q 403 228 351 244 q 496 211 443 215 q 508 278 502 234 q 528 368 518 341 q 584 470 539 395 q 609 524 599 493 q 526 511 565 521 q 432 493 457 493 q 385 520 385 493 q 444 562 385 562 q 529 546 466 562 q 614 536 566 536 q 676 790 624 569 q 711 894 694 867 q 754 921 727 921 q 785 885 785 921 q 773 834 785 859 q 693 680 762 809 q 629 534 643 587 q 775 558 681 536 q 811 562 793 562 q 855 536 855 562 "},"R":{"x_min":157.984375,"x_max":1687,"ha":1285,"o":"m 1687 704 q 1677 627 1687 669 q 1659 585 1668 585 q 1652 592 1652 585 q 1654 598 1652 594 q 1672 700 1672 646 q 1621 838 1672 786 q 1487 890 1570 890 q 1255 816 1372 890 q 1356 642 1356 736 q 1292 507 1356 563 q 1125 438 1229 451 q 1196 321 1196 398 q 1159 164 1196 269 q 1136 55 1136 95 q 1165 -12 1136 15 q 1236 -41 1194 -41 q 1318 -12 1279 -41 q 1330 -7 1327 -7 q 1335 -12 1335 -7 q 1297 -38 1335 -23 q 1232 -54 1260 -54 q 1123 -2 1167 -54 q 1079 126 1079 49 q 1127 322 1079 181 q 1140 383 1140 358 q 1113 437 1140 415 q 1064 433 1070 433 q 997 450 997 433 q 1030 461 997 461 q 1111 445 1070 461 q 1243 520 1191 458 q 1295 666 1295 582 q 1243 793 1295 732 l 1236 802 q 955 415 1088 691 q 809 173 875 247 q 622 40 742 99 q 369 -29 480 -29 q 218 12 278 -29 q 157 116 157 54 q 178 175 157 150 q 228 201 199 201 q 269 155 269 201 q 255 115 269 132 q 221 99 241 99 q 187 136 186 99 q 184 151 188 151 q 173 115 173 151 q 229 22 173 59 q 368 -15 284 -15 q 637 94 517 -15 q 728 193 690 142 q 905 455 768 247 q 1067 662 974 558 q 1225 810 1159 766 q 914 901 1119 901 q 416 694 628 901 q 243 374 243 524 q 291 253 243 298 q 423 209 340 209 q 705 340 560 209 q 851 594 851 471 q 749 693 851 693 q 532 580 648 693 q 417 368 417 467 q 433 326 417 343 q 471 308 449 308 q 483 302 483 308 q 470 297 483 297 q 415 326 437 297 q 393 398 393 356 q 509 604 393 504 q 747 705 625 705 q 864 597 864 705 q 715 331 864 465 q 422 197 566 197 q 271 253 328 197 q 215 405 215 310 q 431 755 215 597 q 911 914 648 914 q 1246 825 1110 914 q 1485 902 1370 902 q 1631 847 1576 902 q 1687 704 1687 793 "},"o":{"x_min":74,"x_max":527.21875,"ha":403,"o":"m 527 213 q 487 162 527 202 q 377 103 427 103 q 340 111 356 103 q 172 -16 250 -16 q 102 17 131 -16 q 74 97 74 51 q 210 299 74 202 q 369 368 307 368 q 428 305 428 368 q 345 118 428 227 q 376 110 359 110 q 447 138 406 110 q 513 206 488 166 q 524 216 521 216 q 527 213 527 216 m 418 304 q 368 359 418 359 q 217 241 306 359 q 129 42 129 123 q 173 -4 129 -4 q 333 116 247 -4 q 314 161 314 138 q 340 229 314 194 q 392 264 367 264 q 407 251 403 264 q 418 304 418 275 "},"5":{"x_min":144,"x_max":886.3125,"ha":664,"o":"m 886 746 q 847 670 886 703 q 758 637 808 637 q 677 652 719 637 q 581 676 611 676 q 524 629 542 676 q 424 441 485 525 q 538 467 481 467 q 691 415 630 467 q 753 286 753 364 q 625 79 753 171 q 336 -12 497 -12 q 197 26 251 -12 q 144 125 144 64 q 213 242 144 195 q 384 289 282 289 q 443 281 443 289 q 438 278 442 278 q 414 280 430 278 q 390 281 398 281 q 241 234 299 281 q 183 114 183 187 q 221 29 183 60 q 324 -2 259 -2 q 566 101 449 -2 q 684 314 684 205 q 640 417 684 378 q 523 455 596 455 q 416 433 475 455 q 317 341 344 341 q 309 348 309 341 q 409 433 309 375 q 529 708 529 593 q 527 726 529 720 q 526 733 526 729 q 534 742 526 742 q 543 719 543 742 q 534 663 543 698 q 636 730 573 730 q 766 694 660 730 q 823 682 803 682 q 860 697 844 682 q 876 733 876 712 q 873 746 876 738 q 871 755 871 753 q 877 764 871 764 q 886 746 886 764 "}}}
